<?xml version="1.0" standalone="no"?>
<!DOCTYPE svg PUBLIC "-//W3C//DTD SVG 1.1//EN"
  "http://www.w3.org/Graphics/SVG/1.1/DTD/svg11.dtd">
<svg version="1.1" xmlns="http://www.w3.org/2000/svg" xmlns:xlink="http://www.w3.org/1999/xlink" width="1920" height="1080" viewBox="-1040.888888888889 -32 1889.7777777777778 1063" id="ccdiagram"><filter id="grayscale"><feColorMatrix type="matrix" values="0.3333 0.3333 0.3333 0 0 0.3333 0.3333 0.3333 0 0 0.3333 0.3333 0.3333 0 0 0 0 0 1 0"></feColorMatrix></filter><defs><style type="text/css">@import url('https://fonts.googleapis.com/css?family=Open+Sans:400,700|Inconsolata:400');</style></defs><g><g style="pointer-events: none;"><g><pattern id="gridPatternMinor" x="0" y="37" width="128" height="74" patternUnits="userSpaceOnUse"><path d="M 0 0 L 128 74" stroke="#eee" stroke-width="1"></path><path d="M 128 0 L 0 74" stroke="#eee" stroke-width="1"></path></pattern><polygon points="0 0, 768 444, -192 999, -960 555" fill="url(#gridPatternMinor)"></polygon></g><polygon points="-960 555, -960 565, -192 1009, -192 999" stroke-linejoin="round" stroke="#54626f" stroke-width="1" fill="#f9f9f9"></polygon><polygon points="-192 1009, 768 454, 768 444, -192 999" stroke-linejoin="round" stroke="#54626f" stroke-width="1" fill="#e2e2e2"></polygon></g><g pointer-events="auto"><g opacity="1"><g><g><polygon points="32 -18, 800 426, 800 463, -32 944, -96 944, -864 500, -864 463, -32 -18" fill="#f5b720" stroke-width="2" stroke="#818181"></polygon><polygon points="0 0, 768 444, -64 925, -832 481" fill="#e6e7e8" stroke-width="0" stroke="#818181"></polygon></g></g></g><g opacity="1"><g><g><polygon points="416 278, 672 426, 672 463, 352 648, 288 648, 32 500, 32 463, 352 278" fill="#ffffff" stroke-width="2" stroke="#818181"></polygon><polygon points="384 296, 640 444, 320 629, 64 481" fill="#8ed1fc" stroke-width="0" stroke="#818181"></polygon></g></g></g><g opacity="1"><g><g><polygon points="32 56, 288 204, 288 241, -32 426, -96 426, -352 278, -352 241, -32 56" fill="#ffffff" stroke-width="2" stroke="#818181"></polygon><polygon points="0 74, 256 222, -64 407, -320 259" fill="#8ed1fc" stroke-width="0" stroke="#818181"></polygon></g></g></g><g opacity="1"><g><g><polygon points="-352 278, -96 426, -96 463, -352 611, -416 611, -672 463, -672 426, -416 278" fill="#ffffff" stroke-width="2" stroke="#818181"></polygon><polygon points="-384 296, -128 444, -384 592, -640 444" fill="#8ed1fc" stroke-width="0" stroke="#818181"></polygon></g></g></g><g opacity="1"><g><g><polygon points="32 500, 288 648, 288 685, 32 833, -32 833, -288 685, -288 648, -32 500" fill="#ffffff" stroke-width="2" stroke="#818181"></polygon><polygon points="0 518, 256 666, 0 814, -256 666" fill="#8ed1fc" stroke-width="0" stroke="#818181"></polygon></g></g></g></g><g style="pointer-events: none;"><g><pattern id="gridPatternMajor" x="0" y="37" width="128" height="74" patternUnits="userSpaceOnUse"><path d="M 64 0 L 128 37 64 74 0 37 z" stroke="#54626f" stroke-width="1" fill="none"></path></pattern><polygon points="0 0, 768 444, -192 999, -960 555" fill="url(#gridPatternMajor)"></polygon></g></g><g pointer-events="auto"></g><g></g><g pointer-events="auto"></g><g></g><g pointer-events="auto"></g><g pointer-events="none"></g><g pointer-events="auto"><g><g cursor="cell"><line x1="-31" y1="472" x2="177" y2="480" stroke="red" stroke-width="9" opacity="0"></line><line x1="-31" y1="472" x2="177" y2="480" stroke="#000000" stroke-width="3" stroke-dasharray="9,6.75" stroke-linecap="butt"></line><polygon points="-47 471, -20 480, -27 472, -18 465, -47 471" stroke-linejoin="round" fill="#000000" stroke="#000000" stroke-width="1"></polygon><polygon points="192 481, 165 472, 172 480, 163 487, 192 481" stroke-linejoin="round" fill="#000000" stroke="#000000" stroke-width="1"></polygon></g></g><g><g cursor="cell"><line x1="-256" y1="444" x2="-608" y2="648" stroke="red" stroke-width="8" opacity="0"></line><line x1="-256" y1="444" x2="-608" y2="648" stroke="#000000" stroke-width="2" stroke-linecap="round"></line></g></g><g><g cursor="cell"><line x1="-600" y1="745" x2="-678" y2="699" stroke="red" stroke-width="8" opacity="0"></line><line x1="-600" y1="745" x2="-678" y2="699" stroke="#000000" stroke-width="2" stroke-linecap="round"></line><polygon points="-688 694, -679 709, -676 701, -662 699, -688 694" stroke-linejoin="round" fill="#000000" stroke="#000000" stroke-width="1"></polygon></g></g><g><g cursor="cell"><line x1="-48" y1="462" x2="-63" y2="342" stroke="red" stroke-width="9" opacity="0"></line><line x1="-48" y1="462" x2="-63" y2="342" stroke="#000000" stroke-width="3" stroke-dasharray="9,6.75" stroke-linecap="butt"></line><polygon points="-47 471, -36 455, -48 460, -62 456, -47 471" stroke-linejoin="round" fill="#000000" stroke="#000000" stroke-width="1"></polygon><polygon points="-64 333, -75 350, -63 344, -49 348, -64 333" stroke-linejoin="round" fill="#000000" stroke="#000000" stroke-width="1"></polygon></g></g><g><g cursor="cell"><line x1="-352" y1="389" x2="-256" y2="444" stroke="red" stroke-width="8" opacity="0"></line><line x1="-352" y1="389" x2="-256" y2="444" stroke="#000000" stroke-width="2" stroke-linecap="round"></line></g></g><g><g cursor="cell"><line x1="320" y1="444" x2="342" y2="431" stroke="red" stroke-width="8" opacity="0"></line><line x1="320" y1="444" x2="342" y2="431" stroke="#000000" stroke-width="2" stroke-linecap="round"></line><polygon points="352 426, 326 431, 340 433, 343 440, 352 426" stroke-linejoin="round" fill="#000000" stroke="#000000" stroke-width="1"></polygon></g></g><g><g cursor="cell"><line x1="-384" y1="666" x2="-224" y2="759" stroke="red" stroke-width="9" opacity="0"></line><line x1="-384" y1="666" x2="-224" y2="759" stroke="#000000" stroke-width="3" stroke-dasharray="9,6.75" stroke-linecap="butt"></line></g></g><g><g cursor="cell"><line x1="-160" y1="278" x2="-352" y2="389" stroke="red" stroke-width="8" opacity="0"></line><line x1="-160" y1="278" x2="-352" y2="389" stroke="#000000" stroke-width="2" stroke-linecap="round"></line></g></g><g><g cursor="cell"><line x1="-608" y1="648" x2="-490" y2="716" stroke="red" stroke-width="8" opacity="0"></line><line x1="-608" y1="648" x2="-490" y2="716" stroke="#000000" stroke-width="2" stroke-linecap="round"></line><polygon points="-480 722, -489 707, -492 714, -506 716, -480 722" stroke-linejoin="round" fill="#000000" stroke="#000000" stroke-width="1"></polygon></g></g><g><g cursor="cell"><line x1="-540" y1="756" x2="-384" y2="666" stroke="red" stroke-width="9" opacity="0"></line><line x1="-540" y1="756" x2="-384" y2="666" stroke="#000000" stroke-width="3" stroke-dasharray="9,6.75" stroke-linecap="butt"></line></g></g><g><g cursor="cell"><line x1="-224" y1="759" x2="213" y2="506" stroke="red" stroke-width="9" opacity="0"></line><line x1="-224" y1="759" x2="213" y2="506" stroke="#000000" stroke-width="3" stroke-dasharray="9,6.75" stroke-linecap="butt"></line><polygon points="224 500, 195 506, 210 508, 214 516, 224 500" stroke-linejoin="round" fill="#000000" stroke="#000000" stroke-width="1"></polygon></g></g><g><g cursor="cell"><line x1="-540" y1="756" x2="-138" y2="524" stroke="red" stroke-width="8" opacity="0"></line><line x1="-540" y1="756" x2="-138" y2="524" stroke="#000000" stroke-width="2" stroke-linecap="round"></line><polygon points="-128 518, -154 523, -140 525, -137 533, -128 518" stroke-linejoin="round" fill="#000000" stroke="#000000" stroke-width="1"></polygon></g></g></g><g pointer-events="auto"><g opacity="1"><g id="a67b763d-2461-4c8f-91ec-0c4c05938fed" transform="translate(0 0)"><svg x="351" y="308" height="60.942" width="95.99" viewBox="0 0 25.397 16.124"><path d="M25.133 6.922l-2.073-1.83-12.434 7.178-8.29-4.786" fill="none" stroke="#83838a" stroke-width=".266"></path><path d="M10.626 12.27l-2.072 3.59h4.145zM.265 11.074l2.072-3.59-2.072 1.82z" fill="#d2d2d4" fill-rule="evenodd" stroke="#83838a" stroke-width=".265"></path><path d="M25.133 8.68L23.06 5.092l2.073 1.831z" fill="#b8b8bb" fill-rule="evenodd" stroke="#83838a" stroke-width=".265"></path><path d="M2.337 7.484l8.29 4.786L23.06 5.091 14.771.306z" fill="#ececed" fill-rule="evenodd" stroke="#83838a" stroke-width=".266"></path><path d="M.265 11.074l2.072-3.59 8.29 4.786-2.073 3.59z" fill="#d2d2d4" fill-rule="evenodd" stroke="#83838a" stroke-width=".265"></path><path d="M12.699 15.86l-2.073-3.59L23.06 5.091l2.073 3.59z" fill="#b8b8bb" fill-rule="evenodd" stroke="#83838a" stroke-width=".265"></path><path d="M.265 9.304v1.77l8.289 4.786h4.145l12.434-7.18V6.923l-2.073-1.83L14.771.305 2.337 7.484z" fill="none" stroke="#000000" stroke-width=".529"></path><path d="M14.764 6.288l-2.065-1.193-2.066 1.193L12.7 7.48zm-2.065.397l-.689-.397.689-.398.688.398zm3.442 1.193l.688-.398-.688-.397.688-.398c.379-.218.379-.576 0-.795l-.688-.397.688-.397-.688-.398-.689.398-.688-.398.688-.397-.688-.398-.688.398-.689-.398c-.379-.218-.998-.218-1.377 0l-.688.398-.689-.398-.688.398.688.397-.688.398-.688-.398-.689.398.689.397-.689.397c-.379.219-.379.577 0 .795l.689.398-.689.397.689.398.688-.398.688.398-.688.397.688.398.689-.398.688.398c.379.218.998.218 1.377 0l.689-.398.688.398.688-.398-.688-.397.688-.398zm-3.442.397L9.257 6.288 12.699 4.3l3.442 1.987z" fill="#4286c5"></path></svg></g></g><g opacity="1"><g id="dddf072d-0031-4627-a65c-c3df020e0f04" transform="translate(0 0)"><svg x="415" y="345" height="60.942" width="95.99" viewBox="0 0 25.397 16.124"><path d="M25.133 6.922l-2.073-1.83-12.434 7.178-8.29-4.786" fill="none" stroke="#83838a" stroke-width=".266"></path><path d="M10.626 12.27l-2.072 3.59h4.145zM.265 11.074l2.072-3.59-2.072 1.82z" fill="#d2d2d4" fill-rule="evenodd" stroke="#83838a" stroke-width=".265"></path><path d="M25.133 8.68L23.06 5.092l2.073 1.831z" fill="#b8b8bb" fill-rule="evenodd" stroke="#83838a" stroke-width=".265"></path><path d="M2.337 7.484l8.29 4.786L23.06 5.091 14.771.306z" fill="#ececed" fill-rule="evenodd" stroke="#83838a" stroke-width=".266"></path><path d="M.265 11.074l2.072-3.59 8.29 4.786-2.073 3.59z" fill="#d2d2d4" fill-rule="evenodd" stroke="#83838a" stroke-width=".265"></path><path d="M12.699 15.86l-2.073-3.59L23.06 5.091l2.073 3.59z" fill="#b8b8bb" fill-rule="evenodd" stroke="#83838a" stroke-width=".265"></path><path d="M.265 9.304v1.77l8.289 4.786h4.145l12.434-7.18V6.923l-2.073-1.83L14.771.305 2.337 7.484z" fill="none" stroke="#000000" stroke-width=".529"></path><path d="M14.764 6.288l-2.065-1.193-2.066 1.193L12.7 7.48zm-2.065.397l-.689-.397.689-.398.688.398zm3.442 1.193l.688-.398-.688-.397.688-.398c.379-.218.379-.576 0-.795l-.688-.397.688-.397-.688-.398-.689.398-.688-.398.688-.397-.688-.398-.688.398-.689-.398c-.379-.218-.998-.218-1.377 0l-.688.398-.689-.398-.688.398.688.397-.688.398-.688-.398-.689.398.689.397-.689.397c-.379.219-.379.577 0 .795l.689.398-.689.397.689.398.688-.398.688.398-.688.397.688.398.689-.398.688.398c.379.218.998.218 1.377 0l.689-.398.688.398.688-.398-.688-.397.688-.398zm-3.442.397L9.257 6.288 12.699 4.3l3.442 1.987z" fill="#4286c5"></path></svg></g></g><g opacity="1"><g id="7f63af1a-7408-46a2-9dc7-b58383736531" transform="translate(0 0)"><svg x="479" y="382" height="60.942" width="95.99" viewBox="0 0 25.397 16.124"><path d="M25.133 6.922l-2.073-1.83-12.434 7.178-8.29-4.786" fill="none" stroke="#83838a" stroke-width=".266"></path><path d="M10.626 12.27l-2.072 3.59h4.145zM.265 11.074l2.072-3.59-2.072 1.82z" fill="#d2d2d4" fill-rule="evenodd" stroke="#83838a" stroke-width=".265"></path><path d="M25.133 8.68L23.06 5.092l2.073 1.831z" fill="#b8b8bb" fill-rule="evenodd" stroke="#83838a" stroke-width=".265"></path><path d="M2.337 7.484l8.29 4.786L23.06 5.091 14.771.306z" fill="#ececed" fill-rule="evenodd" stroke="#83838a" stroke-width=".266"></path><path d="M.265 11.074l2.072-3.59 8.29 4.786-2.073 3.59z" fill="#d2d2d4" fill-rule="evenodd" stroke="#83838a" stroke-width=".265"></path><path d="M12.699 15.86l-2.073-3.59L23.06 5.091l2.073 3.59z" fill="#b8b8bb" fill-rule="evenodd" stroke="#83838a" stroke-width=".265"></path><path d="M.265 9.304v1.77l8.289 4.786h4.145l12.434-7.18V6.923l-2.073-1.83L14.771.305 2.337 7.484z" fill="none" stroke="#000000" stroke-width=".529"></path><path d="M14.764 6.288l-2.065-1.193-2.066 1.193L12.7 7.48zm-2.065.397l-.689-.397.689-.398.688.398zm3.442 1.193l.688-.398-.688-.397.688-.398c.379-.218.379-.576 0-.795l-.688-.397.688-.397-.688-.398-.689.398-.688-.398.688-.397-.688-.398-.688.398-.689-.398c-.379-.218-.998-.218-1.377 0l-.688.398-.689-.398-.688.398.688.397-.688.398-.688-.398-.689.398.689.397-.689.397c-.379.219-.379.577 0 .795l.689.398-.689.397.689.398.688-.398.688.398-.688.397.688.398.689-.398.688.398c.379.218.998.218 1.377 0l.689-.398.688.398.688-.398-.688-.397.688-.398zm-3.442.397L9.257 6.288 12.699 4.3l3.442 1.987z" fill="#4286c5"></path></svg></g></g><g opacity="1"><g id="877c5aef-ca9a-42ca-b3c6-479d2c1a1094" transform="translate(0 0)"><svg x="543" y="419" height="60.942" width="95.99" viewBox="0 0 25.397 16.124"><path d="M25.133 6.922l-2.073-1.83-12.434 7.178-8.29-4.786" fill="none" stroke="#83838a" stroke-width=".266"></path><path d="M10.626 12.27l-2.072 3.59h4.145zM.265 11.074l2.072-3.59-2.072 1.82z" fill="#d2d2d4" fill-rule="evenodd" stroke="#83838a" stroke-width=".265"></path><path d="M25.133 8.68L23.06 5.092l2.073 1.831z" fill="#b8b8bb" fill-rule="evenodd" stroke="#83838a" stroke-width=".265"></path><path d="M2.337 7.484l8.29 4.786L23.06 5.091 14.771.306z" fill="#ececed" fill-rule="evenodd" stroke="#83838a" stroke-width=".266"></path><path d="M.265 11.074l2.072-3.59 8.29 4.786-2.073 3.59z" fill="#d2d2d4" fill-rule="evenodd" stroke="#83838a" stroke-width=".265"></path><path d="M12.699 15.86l-2.073-3.59L23.06 5.091l2.073 3.59z" fill="#b8b8bb" fill-rule="evenodd" stroke="#83838a" stroke-width=".265"></path><path d="M.265 9.304v1.77l8.289 4.786h4.145l12.434-7.18V6.923l-2.073-1.83L14.771.305 2.337 7.484z" fill="none" stroke="#000000" stroke-width=".529"></path><path d="M14.764 6.288l-2.065-1.193-2.066 1.193L12.7 7.48zm-2.065.397l-.689-.397.689-.398.688.398zm3.442 1.193l.688-.398-.688-.397.688-.398c.379-.218.379-.576 0-.795l-.688-.397.688-.397-.688-.398-.689.398-.688-.398.688-.397-.688-.398-.688.398-.689-.398c-.379-.218-.998-.218-1.377 0l-.688.398-.689-.398-.688.398.688.397-.688.398-.688-.398-.689.398.689.397-.689.397c-.379.219-.379.577 0 .795l.689.398-.689.397.689.398.688-.398.688.398-.688.397.688.398.689-.398.688.398c.379.218.998.218 1.377 0l.689-.398.688.398.688-.398-.688-.397.688-.398zm-3.442.397L9.257 6.288 12.699 4.3l3.442 1.987z" fill="#4286c5"></path></svg></g></g><g opacity="1"><g id="28aa9f0e-021e-4ab2-80f6-2d915b93a0a9" transform="translate(0 0)"><svg x="-97" y="123" height="60.942" width="95.99" viewBox="0 0 25.397 16.124"><path d="M25.133 6.922l-2.073-1.83-12.434 7.178-8.29-4.786" fill="none" stroke="#83838a" stroke-width=".266"></path><path d="M10.626 12.27l-2.072 3.59h4.145zM.265 11.074l2.072-3.59-2.072 1.82z" fill="#d2d2d4" fill-rule="evenodd" stroke="#83838a" stroke-width=".265"></path><path d="M25.133 8.68L23.06 5.092l2.073 1.831z" fill="#b8b8bb" fill-rule="evenodd" stroke="#83838a" stroke-width=".265"></path><path d="M2.337 7.484l8.29 4.786L23.06 5.091 14.771.306z" fill="#ececed" fill-rule="evenodd" stroke="#83838a" stroke-width=".266"></path><path d="M.265 11.074l2.072-3.59 8.29 4.786-2.073 3.59z" fill="#d2d2d4" fill-rule="evenodd" stroke="#83838a" stroke-width=".265"></path><path d="M12.699 15.86l-2.073-3.59L23.06 5.091l2.073 3.59z" fill="#b8b8bb" fill-rule="evenodd" stroke="#83838a" stroke-width=".265"></path><path d="M.265 9.304v1.77l8.289 4.786h4.145l12.434-7.18V6.923l-2.073-1.83L14.771.305 2.337 7.484z" fill="none" stroke="#000000" stroke-width=".529"></path><path d="M14.764 6.288l-2.065-1.193-2.066 1.193L12.7 7.48zm-2.065.397l-.689-.397.689-.398.688.398zm3.442 1.193l.688-.398-.688-.397.688-.398c.379-.218.379-.576 0-.795l-.688-.397.688-.397-.688-.398-.689.398-.688-.398.688-.397-.688-.398-.688.398-.689-.398c-.379-.218-.998-.218-1.377 0l-.688.398-.689-.398-.688.398.688.397-.688.398-.688-.398-.689.398.689.397-.689.397c-.379.219-.379.577 0 .795l.689.398-.689.397.689.398.688-.398.688.398-.688.397.688.398.689-.398.688.398c.379.218.998.218 1.377 0l.689-.398.688.398.688-.398-.688-.397.688-.398zm-3.442.397L9.257 6.288 12.699 4.3l3.442 1.987z" fill="#4286c5"></path></svg></g></g><g opacity="1"><g id="46838d43-49e6-4c58-80d0-57efbbd56c43" transform="translate(0 0)"><svg x="-33" y="160" height="60.942" width="95.99" viewBox="0 0 25.397 16.124"><path d="M25.133 6.922l-2.073-1.83-12.434 7.178-8.29-4.786" fill="none" stroke="#83838a" stroke-width=".266"></path><path d="M10.626 12.27l-2.072 3.59h4.145zM.265 11.074l2.072-3.59-2.072 1.82z" fill="#d2d2d4" fill-rule="evenodd" stroke="#83838a" stroke-width=".265"></path><path d="M25.133 8.68L23.06 5.092l2.073 1.831z" fill="#b8b8bb" fill-rule="evenodd" stroke="#83838a" stroke-width=".265"></path><path d="M2.337 7.484l8.29 4.786L23.06 5.091 14.771.306z" fill="#ececed" fill-rule="evenodd" stroke="#83838a" stroke-width=".266"></path><path d="M.265 11.074l2.072-3.59 8.29 4.786-2.073 3.59z" fill="#d2d2d4" fill-rule="evenodd" stroke="#83838a" stroke-width=".265"></path><path d="M12.699 15.86l-2.073-3.59L23.06 5.091l2.073 3.59z" fill="#b8b8bb" fill-rule="evenodd" stroke="#83838a" stroke-width=".265"></path><path d="M.265 9.304v1.77l8.289 4.786h4.145l12.434-7.18V6.923l-2.073-1.83L14.771.305 2.337 7.484z" fill="none" stroke="#000000" stroke-width=".529"></path><path d="M14.764 6.288l-2.065-1.193-2.066 1.193L12.7 7.48zm-2.065.397l-.689-.397.689-.398.688.398zm3.442 1.193l.688-.398-.688-.397.688-.398c.379-.218.379-.576 0-.795l-.688-.397.688-.397-.688-.398-.689.398-.688-.398.688-.397-.688-.398-.688.398-.689-.398c-.379-.218-.998-.218-1.377 0l-.688.398-.689-.398-.688.398.688.397-.688.398-.688-.398-.689.398.689.397-.689.397c-.379.219-.379.577 0 .795l.689.398-.689.397.689.398.688-.398.688.398-.688.397.688.398.689-.398.688.398c.379.218.998.218 1.377 0l.689-.398.688.398.688-.398-.688-.397.688-.398zm-3.442.397L9.257 6.288 12.699 4.3l3.442 1.987z" fill="#4286c5"></path></svg></g></g><g opacity="1"><g id="1c6cfb30-ef4a-4891-987e-d6780637e418" transform="translate(0 0)"><svg x="31" y="197" height="60.942" width="95.99" viewBox="0 0 25.397 16.124"><path d="M25.133 6.922l-2.073-1.83-12.434 7.178-8.29-4.786" fill="none" stroke="#83838a" stroke-width=".266"></path><path d="M10.626 12.27l-2.072 3.59h4.145zM.265 11.074l2.072-3.59-2.072 1.82z" fill="#d2d2d4" fill-rule="evenodd" stroke="#83838a" stroke-width=".265"></path><path d="M25.133 8.68L23.06 5.092l2.073 1.831z" fill="#b8b8bb" fill-rule="evenodd" stroke="#83838a" stroke-width=".265"></path><path d="M2.337 7.484l8.29 4.786L23.06 5.091 14.771.306z" fill="#ececed" fill-rule="evenodd" stroke="#83838a" stroke-width=".266"></path><path d="M.265 11.074l2.072-3.59 8.29 4.786-2.073 3.59z" fill="#d2d2d4" fill-rule="evenodd" stroke="#83838a" stroke-width=".265"></path><path d="M12.699 15.86l-2.073-3.59L23.06 5.091l2.073 3.59z" fill="#b8b8bb" fill-rule="evenodd" stroke="#83838a" stroke-width=".265"></path><path d="M.265 9.304v1.77l8.289 4.786h4.145l12.434-7.18V6.923l-2.073-1.83L14.771.305 2.337 7.484z" fill="none" stroke="#000000" stroke-width=".529"></path><path d="M14.764 6.288l-2.065-1.193-2.066 1.193L12.7 7.48zm-2.065.397l-.689-.397.689-.398.688.398zm3.442 1.193l.688-.398-.688-.397.688-.398c.379-.218.379-.576 0-.795l-.688-.397.688-.397-.688-.398-.689.398-.688-.398.688-.397-.688-.398-.688.398-.689-.398c-.379-.218-.998-.218-1.377 0l-.688.398-.689-.398-.688.398.688.397-.688.398-.688-.398-.689.398.689.397-.689.397c-.379.219-.379.577 0 .795l.689.398-.689.397.689.398.688-.398.688.398-.688.397.688.398.689-.398.688.398c.379.218.998.218 1.377 0l.689-.398.688.398.688-.398-.688-.397.688-.398zm-3.442.397L9.257 6.288 12.699 4.3l3.442 1.987z" fill="#4286c5"></path></svg></g></g><g opacity="1"><g id="d89772e0-9689-4a88-bb3e-b3990203b7f9" transform="translate(0 0)"><svg x="95" y="234" height="60.942" width="95.99" viewBox="0 0 25.397 16.124"><path d="M25.133 6.922l-2.073-1.83-12.434 7.178-8.29-4.786" fill="none" stroke="#83838a" stroke-width=".266"></path><path d="M10.626 12.27l-2.072 3.59h4.145zM.265 11.074l2.072-3.59-2.072 1.82z" fill="#d2d2d4" fill-rule="evenodd" stroke="#83838a" stroke-width=".265"></path><path d="M25.133 8.68L23.06 5.092l2.073 1.831z" fill="#b8b8bb" fill-rule="evenodd" stroke="#83838a" stroke-width=".265"></path><path d="M2.337 7.484l8.29 4.786L23.06 5.091 14.771.306z" fill="#ececed" fill-rule="evenodd" stroke="#83838a" stroke-width=".266"></path><path d="M.265 11.074l2.072-3.59 8.29 4.786-2.073 3.59z" fill="#d2d2d4" fill-rule="evenodd" stroke="#83838a" stroke-width=".265"></path><path d="M12.699 15.86l-2.073-3.59L23.06 5.091l2.073 3.59z" fill="#b8b8bb" fill-rule="evenodd" stroke="#83838a" stroke-width=".265"></path><path d="M.265 9.304v1.77l8.289 4.786h4.145l12.434-7.18V6.923l-2.073-1.83L14.771.305 2.337 7.484z" fill="none" stroke="#000000" stroke-width=".529"></path><path d="M14.764 6.288l-2.065-1.193-2.066 1.193L12.7 7.48zm-2.065.397l-.689-.397.689-.398.688.398zm3.442 1.193l.688-.398-.688-.397.688-.398c.379-.218.379-.576 0-.795l-.688-.397.688-.397-.688-.398-.689.398-.688-.398.688-.397-.688-.398-.688.398-.689-.398c-.379-.218-.998-.218-1.377 0l-.688.398-.689-.398-.688.398.688.397-.688.398-.688-.398-.689.398.689.397-.689.397c-.379.219-.379.577 0 .795l.689.398-.689.397.689.398.688-.398.688.398-.688.397.688.398.689-.398.688.398c.379.218.998.218 1.377 0l.689-.398.688.398.688-.398-.688-.397.688-.398zm-3.442.397L9.257 6.288 12.699 4.3l3.442 1.987z" fill="#4286c5"></path></svg></g></g><g opacity="1"><g id="5d278240-94ce-47a7-a25e-5839f80131f5" transform="translate(0 0)"><svg x="256" y="296" height="111" width="128" fill-rule="evenodd"><path d="M64 74v37l64-37V37L64 74z" fill="#b8b8bb"></path><path d="M0 37v37l64 37V74L0 37z" fill="#d2d2d4"></path><path d="M0 37L64 0l64 37-64 37L0 37z" fill="#ececed"></path><path d="M64 73.407l62.111-35.86.514.889-62.487 36.078h-.276L.743 38.072l.514-.89L64 73.407z" fill="#83838a"></path><path d="M63.486 74h1.027v36h-1.027z" fill="#83838a"></path><path d="M128 37v37l-64 37L0 74V37L64 0l64 37zM2.054 38.185v34.63L64 108.627l61.946-35.812v-34.63L64 2.373 2.054 38.185z" fill="#000000"></path></svg><svg x="311" y="314" width="60" height="35" style="overflow: visible; cursor: default;"><rect transform="matrix(0.707 0.409 -0.707 0.409 0 0)" width="60" height="35" rx="5" ry="5" fill="#4286c5"></rect><text transform="matrix(0.707 0.409 -0.707 0.409 0 0)" font-family="Open Sans" font-size="20pt" text-anchor="middle" x="50%" y="75%" fill="#ffffff"><tspan>T2</tspan></text></svg></g></g><g opacity="1"><g id="e783fa50-c0c3-49cb-90d2-c30edf9a61f5" transform="translate(0 0)"><svg x="320" y="333" height="111" width="128" fill-rule="evenodd"><path d="M64 74v37l64-37V37L64 74z" fill="#b8b8bb"></path><path d="M0 37v37l64 37V74L0 37z" fill="#d2d2d4"></path><path d="M0 37L64 0l64 37-64 37L0 37z" fill="#ececed"></path><path d="M64 73.407l62.111-35.86.514.889-62.487 36.078h-.276L.743 38.072l.514-.89L64 73.407z" fill="#83838a"></path><path d="M63.486 74h1.027v36h-1.027z" fill="#83838a"></path><path d="M128 37v37l-64 37L0 74V37L64 0l64 37zM2.054 38.185v34.63L64 108.627l61.946-35.812v-34.63L64 2.373 2.054 38.185z" fill="#000000"></path></svg><svg x="375" y="351" width="60" height="35" style="overflow: visible; cursor: default;"><rect transform="matrix(0.707 0.409 -0.707 0.409 0 0)" width="60" height="35" rx="5" ry="5" fill="#4286c5"></rect><text transform="matrix(0.707 0.409 -0.707 0.409 0 0)" font-family="Open Sans" font-size="20pt" text-anchor="middle" x="50%" y="75%" fill="#ffffff"><tspan>T2</tspan></text></svg></g></g><g opacity="1"><g id="3e6111fa-c96f-470b-b506-f1e5f2472f77" transform="translate(0 0)"><svg x="384" y="370" height="111" width="128" fill-rule="evenodd"><path d="M64 74v37l64-37V37L64 74z" fill="#b8b8bb"></path><path d="M0 37v37l64 37V74L0 37z" fill="#d2d2d4"></path><path d="M0 37L64 0l64 37-64 37L0 37z" fill="#ececed"></path><path d="M64 73.407l62.111-35.86.514.889-62.487 36.078h-.276L.743 38.072l.514-.89L64 73.407z" fill="#83838a"></path><path d="M63.486 74h1.027v36h-1.027z" fill="#83838a"></path><path d="M128 37v37l-64 37L0 74V37L64 0l64 37zM2.054 38.185v34.63L64 108.627l61.946-35.812v-34.63L64 2.373 2.054 38.185z" fill="#000000"></path></svg><svg x="439" y="388" width="60" height="35" style="overflow: visible; cursor: default;"><rect transform="matrix(0.707 0.409 -0.707 0.409 0 0)" width="60" height="35" rx="5" ry="5" fill="#4286c5"></rect><text transform="matrix(0.707 0.409 -0.707 0.409 0 0)" font-family="Open Sans" font-size="20pt" text-anchor="middle" x="50%" y="75%" fill="#ffffff"><tspan>T2</tspan></text></svg></g></g><g opacity="1"><g id="1f573f2f-ecc9-4d0d-919a-6fd1dc92d0a8" transform="translate(0 0)"><svg x="448" y="407" height="111" width="128" fill-rule="evenodd"><path d="M64 74v37l64-37V37L64 74z" fill="#b8b8bb"></path><path d="M0 37v37l64 37V74L0 37z" fill="#d2d2d4"></path><path d="M0 37L64 0l64 37-64 37L0 37z" fill="#ececed"></path><path d="M64 73.407l62.111-35.86.514.889-62.487 36.078h-.276L.743 38.072l.514-.89L64 73.407z" fill="#83838a"></path><path d="M63.486 74h1.027v36h-1.027z" fill="#83838a"></path><path d="M128 37v37l-64 37L0 74V37L64 0l64 37zM2.054 38.185v34.63L64 108.627l61.946-35.812v-34.63L64 2.373 2.054 38.185z" fill="#000000"></path></svg><svg x="503" y="425" width="60" height="35" style="overflow: visible; cursor: default;"><rect transform="matrix(0.707 0.409 -0.707 0.409 0 0)" width="60" height="35" rx="5" ry="5" fill="#4286c5"></rect><text transform="matrix(0.707 0.409 -0.707 0.409 0 0)" font-family="Open Sans" font-size="20pt" text-anchor="middle" x="50%" y="75%" fill="#ffffff"><tspan>T2</tspan></text></svg></g></g><g opacity="1"><g id="548b1ef0-3609-4bca-b372-d38bfdd60a3a" transform="translate(0 0)"><svg x="-192" y="111" height="111" width="128" fill-rule="evenodd"><path d="M64 74v37l64-37V37L64 74z" fill="#b8b8bb"></path><path d="M0 37v37l64 37V74L0 37z" fill="#d2d2d4"></path><path d="M0 37L64 0l64 37-64 37L0 37z" fill="#ececed"></path><path d="M64 73.407l62.111-35.86.514.889-62.487 36.078h-.276L.743 38.072l.514-.89L64 73.407z" fill="#83838a"></path><path d="M63.486 74h1.027v36h-1.027z" fill="#83838a"></path><path d="M128 37v37l-64 37L0 74V37L64 0l64 37zM2.054 38.185v34.63L64 108.627l61.946-35.812v-34.63L64 2.373 2.054 38.185z" fill="#000000"></path></svg><svg x="-137" y="129" width="60" height="35" style="overflow: visible; cursor: default;"><rect transform="matrix(0.707 0.409 -0.707 0.409 0 0)" width="60" height="35" rx="5" ry="5" fill="#4286c5"></rect><text transform="matrix(0.707 0.409 -0.707 0.409 0 0)" font-family="Open Sans" font-size="20pt" text-anchor="middle" x="50%" y="75%" fill="#ffffff"><tspan>T2</tspan></text></svg></g></g><g opacity="1"><g id="58c5ee71-0553-41d7-bbe4-df1b802eb081" transform="translate(0 0)"><svg x="-128" y="148" height="111" width="128" fill-rule="evenodd"><path d="M64 74v37l64-37V37L64 74z" fill="#b8b8bb"></path><path d="M0 37v37l64 37V74L0 37z" fill="#d2d2d4"></path><path d="M0 37L64 0l64 37-64 37L0 37z" fill="#ececed"></path><path d="M64 73.407l62.111-35.86.514.889-62.487 36.078h-.276L.743 38.072l.514-.89L64 73.407z" fill="#83838a"></path><path d="M63.486 74h1.027v36h-1.027z" fill="#83838a"></path><path d="M128 37v37l-64 37L0 74V37L64 0l64 37zM2.054 38.185v34.63L64 108.627l61.946-35.812v-34.63L64 2.373 2.054 38.185z" fill="#000000"></path></svg><svg x="-73" y="166" width="60" height="35" style="overflow: visible; cursor: default;"><rect transform="matrix(0.707 0.409 -0.707 0.409 0 0)" width="60" height="35" rx="5" ry="5" fill="#4286c5"></rect><text transform="matrix(0.707 0.409 -0.707 0.409 0 0)" font-family="Open Sans" font-size="20pt" text-anchor="middle" x="50%" y="75%" fill="#ffffff"><tspan>T2</tspan></text></svg></g></g><g opacity="1"><g id="a950756f-1822-4d47-bac5-a6a911ae00a2" transform="translate(0 0)"><svg x="-64" y="185" height="111" width="128" fill-rule="evenodd"><path d="M64 74v37l64-37V37L64 74z" fill="#b8b8bb"></path><path d="M0 37v37l64 37V74L0 37z" fill="#d2d2d4"></path><path d="M0 37L64 0l64 37-64 37L0 37z" fill="#ececed"></path><path d="M64 73.407l62.111-35.86.514.889-62.487 36.078h-.276L.743 38.072l.514-.89L64 73.407z" fill="#83838a"></path><path d="M63.486 74h1.027v36h-1.027z" fill="#83838a"></path><path d="M128 37v37l-64 37L0 74V37L64 0l64 37zM2.054 38.185v34.63L64 108.627l61.946-35.812v-34.63L64 2.373 2.054 38.185z" fill="#000000"></path></svg><svg x="-9" y="203" width="60" height="35" style="overflow: visible; cursor: default;"><rect transform="matrix(0.707 0.409 -0.707 0.409 0 0)" width="60" height="35" rx="5" ry="5" fill="#4286c5"></rect><text transform="matrix(0.707 0.409 -0.707 0.409 0 0)" font-family="Open Sans" font-size="20pt" text-anchor="middle" x="50%" y="75%" fill="#ffffff"><tspan>T2</tspan></text></svg></g></g><g opacity="1"><g id="ba4be9fc-b239-45ed-8e97-9f67062852bd" transform="translate(0 0)"><svg x="0" y="222" height="111" width="128" fill-rule="evenodd"><path d="M64 74v37l64-37V37L64 74z" fill="#b8b8bb"></path><path d="M0 37v37l64 37V74L0 37z" fill="#d2d2d4"></path><path d="M0 37L64 0l64 37-64 37L0 37z" fill="#ececed"></path><path d="M64 73.407l62.111-35.86.514.889-62.487 36.078h-.276L.743 38.072l.514-.89L64 73.407z" fill="#83838a"></path><path d="M63.486 74h1.027v36h-1.027z" fill="#83838a"></path><path d="M128 37v37l-64 37L0 74V37L64 0l64 37zM2.054 38.185v34.63L64 108.627l61.946-35.812v-34.63L64 2.373 2.054 38.185z" fill="#000000"></path></svg><svg x="55" y="240" width="60" height="35" style="overflow: visible; cursor: default;"><rect transform="matrix(0.707 0.409 -0.707 0.409 0 0)" width="60" height="35" rx="5" ry="5" fill="#4286c5"></rect><text transform="matrix(0.707 0.409 -0.707 0.409 0 0)" font-family="Open Sans" font-size="20pt" text-anchor="middle" x="50%" y="75%" fill="#ffffff"><tspan>T2</tspan></text></svg></g></g><g opacity="1"><g id="2f3afa14-e8eb-4de2-8dda-ca1c3134300a" transform="translate(0 0)"><svg x="-192" y="185" height="111" width="128" fill-rule="evenodd"><path d="M64 74v37l64-37V37L64 74z" fill="#b8b8bb"></path><path d="M0 37v37l64 37V74L0 37z" fill="#d2d2d4"></path><path d="M0 37L64 0l64 37-64 37L0 37z" fill="#ececed"></path><path d="M64 73.407l62.111-35.86.514.889-62.487 36.078h-.276L.743 38.072l.514-.89L64 73.407z" fill="#83838a"></path><path d="M63.486 74h1.027v36h-1.027z" fill="#83838a"></path><path d="M128 37v37l-64 37L0 74V37L64 0l64 37zM2.054 38.185v34.63L64 108.627l61.946-35.812v-34.63L64 2.373 2.054 38.185z" fill="#000000"></path></svg><svg x="-137" y="203" width="60" height="35" style="overflow: visible; cursor: default;"><rect transform="matrix(0.707 0.409 -0.707 0.409 0 0)" width="60" height="35" rx="5" ry="5" fill="#4286c5"></rect><text transform="matrix(0.707 0.409 -0.707 0.409 0 0)" font-family="Open Sans" font-size="20pt" text-anchor="middle" x="50%" y="75%" fill="#ffffff"><tspan>T2</tspan></text></svg></g></g><g opacity="1"><g id="a57cf362-f78b-4049-88a7-9a690955994d" transform="translate(0 0)"><svg x="-128" y="222" height="111" width="128" fill-rule="evenodd"><path d="M64 74v37l64-37V37L64 74z" fill="#b8b8bb"></path><path d="M0 37v37l64 37V74L0 37z" fill="#d2d2d4"></path><path d="M0 37L64 0l64 37-64 37L0 37z" fill="#ececed"></path><path d="M64 73.407l62.111-35.86.514.889-62.487 36.078h-.276L.743 38.072l.514-.89L64 73.407z" fill="#83838a"></path><path d="M63.486 74h1.027v36h-1.027z" fill="#83838a"></path><path d="M128 37v37l-64 37L0 74V37L64 0l64 37zM2.054 38.185v34.63L64 108.627l61.946-35.812v-34.63L64 2.373 2.054 38.185z" fill="#000000"></path></svg><svg x="-73" y="240" width="60" height="35" style="overflow: visible; cursor: default;"><rect transform="matrix(0.707 0.409 -0.707 0.409 0 0)" width="60" height="35" rx="5" ry="5" fill="#4286c5"></rect><text transform="matrix(0.707 0.409 -0.707 0.409 0 0)" font-family="Open Sans" font-size="20pt" text-anchor="middle" x="50%" y="75%" fill="#ffffff"><tspan>T2</tspan></text></svg></g></g><g opacity="1"><g id="a9c3de97-80bb-4dfa-80c2-da7a0f547b81" transform="translate(0 0)"><svg x="192" y="407" height="111" width="128" fill-rule="evenodd"><path d="M64 74v37l64-37V37L64 74z" fill="#b8b8bb"></path><path d="M0 37v37l64 37V74L0 37z" fill="#d2d2d4"></path><path d="M0 37L64 0l64 37-64 37L0 37z" fill="#ececed"></path><path d="M64 73.407l62.111-35.86.514.889-62.487 36.078h-.276L.743 38.072l.514-.89L64 73.407z" fill="#83838a"></path><path d="M63.486 74h1.027v36h-1.027z" fill="#83838a"></path><path d="M128 37v37l-64 37L0 74V37L64 0l64 37zM2.054 38.185v34.63L64 108.627l61.946-35.812v-34.63L64 2.373 2.054 38.185z" fill="#000000"></path></svg><svg x="247" y="425" width="60" height="35" style="overflow: visible; cursor: default;"><rect transform="matrix(0.707 0.409 -0.707 0.409 0 0)" width="60" height="35" rx="5" ry="5" fill="#4286c5"></rect><text transform="matrix(0.707 0.409 -0.707 0.409 0 0)" font-family="Open Sans" font-size="20pt" text-anchor="middle" x="50%" y="75%" fill="#ffffff"><tspan>T2</tspan></text></svg></g></g><g opacity="1"><g id="88cbab21-f28c-402e-bbc7-731af559ac26" transform="translate(0 0)"><svg x="264" y="480" height="70.288" width="112.002" viewBox="0 0 29.634 18.597"><defs></defs><path d="M29.37 9.367L27.29 7.53l-16.63 4.778-8.316-4.8" fill="none" stroke="#fdf3f2" stroke-width=".267"></path><path d="M14.817 14.732l-2.079 3.6h4.158zM.265 11.108l2.079-3.6-2.08 1.824z" fill="#ce3222" fill-rule="evenodd" stroke="#fdf3f2" stroke-width=".267"></path><path d="M29.37 11.13l-2.08-3.6 2.08 1.837z" fill="#a2281b" fill-rule="evenodd" stroke="#fdf3f2" stroke-width=".267"></path><path d="M2.344 7.507l12.473 7.225L27.29 7.53 14.817.306z" fill="#e05243" fill-rule="evenodd" stroke="#fdf3f2" stroke-width=".267"></path><path d="M.265 11.108l2.079-3.6 12.473 7.224-2.079 3.6z" fill="#ce3222" fill-rule="evenodd" stroke="#fdf3f2" stroke-width=".265"></path><path d="M16.896 18.332l-2.08-3.6L27.29 7.53l2.08 3.6z" fill="#a2281b" fill-rule="evenodd" stroke="#fdf3f2" stroke-width=".265"></path><path d="M.265 9.332v1.776l12.473 7.224h4.158l12.473-7.201V9.367L27.29 7.53 14.817.306 2.344 7.507z" fill="none" stroke="#000000" stroke-width=".529"></path><g transform="scale(.23075 .13322) rotate(45 1682.355 -3171.487)"><circle cx="2820.64" cy="255.199" fill="none" r="25.979" stroke="#ffffff" stroke-width="3.448"></circle><path d="M2817.601 243.03h-9.126a3.038 3.038 0 0 0-3.027 3.043l-.018 18.253a3.051 3.051 0 0 0 3.042 3.042h24.337a3.051 3.051 0 0 0 3.042-3.042v-15.211a3.051 3.051 0 0 0-3.042-3.042h-12.169z" fill="#ffffff"></path><g fill-rule="evenodd"><g fill="#e05243"><path d="M2803.23 240.954l-11.691-6.75" stroke="#e05243" stroke-width="9.375"></path><path d="M2757.335 182.443l-11.691-6.75" fill="#ffffff" marker-end="url(#a)" stroke="#ffffff" stroke-linecap="round" stroke-width="2.812" transform="translate(45.895 58.512)"></path></g><path d="M2803.23 269.444l-11.691 6.75" fill="#e05243" stroke="#e05243" stroke-width="9.375"></path><path d="M2757.335 210.932l-11.692 6.75" fill="#ffffff" marker-end="url(#b)" stroke="#ffffff" stroke-linecap="round" stroke-width="2.812" transform="translate(45.895 58.512)"></path></g><path d="M2838.05 240.954l11.692-6.75" fill="none" stroke="#e05243" stroke-width="9.375"></path><path d="M2792.156 182.443l5.519-3.187 6.172-3.563" fill="#ffffff" fill-rule="evenodd" marker-end="url(#c)" stroke="#ffffff" stroke-linecap="round" stroke-width="2.812" transform="translate(45.895 58.512)"></path><g fill="#ffffff" fill-rule="evenodd"><path d="M2838.05 269.444l11.692 6.75" stroke="#e05243" stroke-width="9.375"></path><path d="M2792.156 210.932l11.691 6.75" marker-end="url(#d)" stroke="#ffffff" stroke-linecap="round" stroke-width="2.812" transform="translate(45.895 58.512)"></path></g></g></svg></g></g><g opacity="1"><g id="a048eb1e-4ca5-4aea-bb80-ba69d37d3f12" transform="translate(0 0)"><svg x="-144" y="435" height="94" width="97" fill-rule="evenodd"><path d="M0 18.6v18.6l32.333 18.6h32.334L97 37.2V18.6L64.667 0H32.333L0 18.6z" fill="#ececed"></path><path d="M64.667 55.8L97 37.2v37.2L64.667 93V55.8z" fill="#b8b8bb"></path><path d="M32.333 55.8h32.334V93H32.333V55.8zM0 37.2v37.2L32.333 93V55.8L0 37.2z" fill="#d2d2d4"></path><g fill="none" stroke="#83838a" stroke-width="1.04"><path d="M.955 37.877L32.333 55.8h32.334l31.378-17.923M32.333 55.8v36.211M64.667 55.8v36.574"></path></g><path d="M97 18.6v55.8L64.667 93H32.333L0 74.4V18.6L32.333 0h32.334L97 18.6zM32.865 1.989L1.989 19.751v53.498l30.876 17.762h31.27l30.876-17.762V19.751L64.135 1.989h-31.27z" fill="#000000"></path><path d="M69.912 15.583c11.818 6.798 11.818 17.836 0 24.635-11.817 6.798-31.007 6.798-42.824 0-11.818-6.799-11.818-17.837 0-24.635 11.817-6.799 31.007-6.799 42.824 0z" fill="#4286c5"></path><path d="M49.584 14.774c1.824 1.049 1.824 2.753 0 3.802-1.824 1.05-4.786 1.05-6.61 0-1.824-1.049-1.824-2.753 0-3.802 1.824-1.05 4.786-1.05 6.61 0zM60.451 21.025c1.825 1.049 1.825 2.753 0 3.803-1.824 1.049-4.786 1.049-6.61 0-1.824-1.05-1.824-2.754 0-3.803s4.786-1.049 6.61 0zM71.319 27.276c1.824 1.05 1.824 2.754 0 3.803-1.825 1.049-4.787 1.049-6.611 0-1.824-1.049-1.824-2.753 0-3.803 1.824-1.049 4.786-1.049 6.611 0zM38.497 33.654c1.824 1.05 1.824 2.754 0 3.803-1.825 1.05-4.787 1.05-6.611 0-1.824-1.049-1.824-2.753 0-3.803 1.824-1.049 4.786-1.049 6.611 0z" fill="#ffffff"></path><path d="M47.458 15.878c.453.26.393.717-.133 1.02-.526.303-1.32.337-1.773.076-.452-.26-.392-.717.133-1.019.526-.303 1.321-.337 1.773-.077z" fill="#ffffff"></path><path d="M48.111 15.621c1.012.582 1.012 1.526 0 2.108-1.011.582-2.653.582-3.664 0-1.012-.582-1.012-1.526 0-2.108 1.011-.582 2.653-.582 3.664 0zM58.978 21.872c1.012.582 1.012 1.527 0 2.108-1.011.582-2.653.582-3.664 0-1.012-.581-1.012-1.526 0-2.108 1.011-.581 2.653-.581 3.664 0zM69.846 28.124c1.011.581 1.011 1.526 0 2.108-1.012.582-2.654.582-3.665 0-1.011-.582-1.011-1.527 0-2.108 1.011-.582 2.653-.582 3.665 0z" fill="#4286c5"></path><path d="M37.024 34.502c1.011.582 1.011 1.526 0 2.108-1.012.582-2.654.582-3.665 0-1.011-.582-1.011-1.526 0-2.108 1.011-.582 2.653-.582 3.665 0z" fill="#ffffff"></path><g fill="#ffffff"><path d="M52.301 25.172L37.719 33.56l.482.834 14.584-8.388-.484-.834z"></path><path d="M46.993 26.089l6.654-1.146-4.324 5.168c.189-1.691-.757-3.313-2.33-4.022z" stroke="#ffffff" stroke-width=".36"></path></g><g fill="#ffffff"><path d="M43.488 19.937l-6.057 13.797.886.387 6.056-13.798-.885-.386z"></path><path d="M39.76 23.812l4.676-4.854-.405 6.716c-.855-1.474-2.582-2.221-4.271-1.862z" stroke="#ffffff" stroke-width=".36"></path></g><g fill="#ffffff"><path d="M61.953 30.061l-23.985 3.483.14.955 23.985-3.486-.14-.952z"></path><path d="M56.68 28.957l6.608 1.387-5.936 3.209c.804-1.503.526-3.358-.672-4.596h0z" stroke="#ffffff" stroke-width=".36"></path></g><path d="M37.96 33.977l13.12-7.547M37.873 33.927l5.792-13.134M38.037 34.022l22.478-3.281" fill="#ffffff" stroke="#ffffff" stroke-width="1.93"></path></svg></g></g><g opacity="1"><g id="9bb1aa51-d12d-4bfc-a219-67231a786826" transform="translate(0 0)"><svg x="-128" y="592" height="111" width="128" fill-rule="evenodd"><path d="M64 74v37l64-37V37L64 74z" fill="#b8b8bb"></path><path d="M0 37v37l64 37V74L0 37z" fill="#d2d2d4"></path><path d="M0 37L64 0l64 37-64 37L0 37z" fill="#ececed"></path><path d="M64 73.407l62.111-35.86.514.889-62.487 36.078h-.276L.743 38.072l.514-.89L64 73.407z" fill="#83838a"></path><path d="M63.486 74h1.027v36h-1.027z" fill="#83838a"></path><path d="M128 37v37l-64 37L0 74V37L64 0l64 37zM2.054 38.185v34.63L64 108.627l61.946-35.812v-34.63L64 2.373 2.054 38.185z" fill="#000000"></path></svg><svg x="-73" y="610" width="60" height="35" style="overflow: visible; cursor: default;"><rect transform="matrix(0.707 0.409 -0.707 0.409 0 0)" width="60" height="35" rx="5" ry="5" fill="#4286c5"></rect><text transform="matrix(0.707 0.409 -0.707 0.409 0 0)" font-family="Open Sans" font-size="20pt" text-anchor="middle" x="50%" y="75%" fill="#ffffff"><tspan>T2</tspan></text></svg></g></g><g opacity="1"><g id="3fc47f2a-542c-401e-b250-2d906553e318" transform="translate(0 0)"><svg x="-494" y="474" height="108.05" width="123" viewBox="0 0 32.544 28.588"><path d="M10.115 6.02v14.218l7.873-4.318V1.474z" fill="#b8b8bb" fill-rule="evenodd" stroke="#83838a" stroke-width=".268"></path><path d="M.265 2.228l9.85 3.791v14.219l-9.85-8.531z" fill="#d2d2d4" fill-rule="evenodd" stroke="#83838a" stroke-width=".265"></path><path d="M10.115 6.02l7.873-4.546L3.548.332.265 2.228z" fill="#ececed" fill-rule="evenodd" stroke="#83838a" stroke-width=".265"></path><path d="M.265 11.707l9.85 8.53 7.873-4.317V1.474L3.392.271.265 2.076z" fill="none" stroke="#000000" stroke-width=".529"></path><path d="M22.429 3.65L14.22 8.39l14.828 10.397 3.231-1.866z" fill="#ececed" fill-rule="evenodd" stroke="#83838a" stroke-width=".268"></path><path d="M14.22 8.39V22.61l14.777 5.687.051-9.509z" fill="#d2d2d4" fill-rule="evenodd" stroke="#83838a" stroke-width=".265"></path><path d="M29.048 18.787l3.231-1.866V26.4l-3.282 1.897z" fill="#b8b8bb" fill-rule="evenodd" stroke="#83838a" stroke-width=".265"></path><path d="M22.429 3.65L14.22 8.39V22.61l14.777 5.687 3.282-1.897v-9.478z" fill="none" stroke="#000000" stroke-width=".529"></path><path d="M18.582 19.764l-1.527-.59c-.28-.108-.509-.02-.509.197v1.179c0 .217.228.48.51.59l1.526.589c.28.108.509.02.509-.197v-1.178c0-.217-.228-.481-.51-.59zm-.382-1.13l3.053 1.18v.589l.763.294v-.589l3.053 1.179v.589l.763.295v-.707c0-.26-.274-.578-.61-.708l-3.206-1.237v-.786l.636.245c.281.109.509.02.509-.196v-1.179c0-.217-.228-.48-.509-.589l-2.035-.786c-.281-.108-.509-.02-.509.197v1.178c0 .217.228.481.509.59l.636.245v.786l-3.205-1.238c-.337-.13-.611-.024-.611.236v.707l.763.295zm4.198 2.603l-1.527-.589c-.28-.108-.508-.02-.508.197v1.178c0 .217.227.481.508.59l1.527.589c.28.108.508.02.508-.196v-1.18c0-.216-.227-.48-.508-.589zm3.816 1.474l-1.527-.59c-.28-.108-.509-.02-.509.197v1.179c0 .217.228.48.51.589l1.526.59c.28.108.508.02.508-.197V23.3c0-.217-.227-.48-.508-.59z" fill="#4286c5"></path></svg></g></g><g opacity="1"><g id="4e4de556-a907-44be-9790-f2683b8f3bff" transform="translate(0 0)"><svg x="-510" y="631" height="108.05" width="123" viewBox="0 0 32.544 28.588"><path d="M10.115 6.02v14.218l7.873-4.318V1.474z" fill="#b8b8bb" fill-rule="evenodd" stroke="#83838a" stroke-width=".268"></path><path d="M.265 2.228l9.85 3.791v14.219l-9.85-8.531z" fill="#d2d2d4" fill-rule="evenodd" stroke="#83838a" stroke-width=".265"></path><path d="M10.115 6.02l7.873-4.546L3.548.332.265 2.228z" fill="#ececed" fill-rule="evenodd" stroke="#83838a" stroke-width=".265"></path><path d="M.265 11.707l9.85 8.53 7.873-4.317V1.474L3.392.271.265 2.076z" fill="none" stroke="#000000" stroke-width=".529"></path><path d="M22.429 3.65L14.22 8.39l14.828 10.397 3.231-1.866z" fill="#ececed" fill-rule="evenodd" stroke="#83838a" stroke-width=".268"></path><path d="M14.22 8.39V22.61l14.777 5.687.051-9.509z" fill="#d2d2d4" fill-rule="evenodd" stroke="#83838a" stroke-width=".265"></path><path d="M29.048 18.787l3.231-1.866V26.4l-3.282 1.897z" fill="#b8b8bb" fill-rule="evenodd" stroke="#83838a" stroke-width=".265"></path><path d="M22.429 3.65L14.22 8.39V22.61l14.777 5.687 3.282-1.897v-9.478z" fill="none" stroke="#000000" stroke-width=".529"></path><path d="M25.604 20.872c-.071-.975-.928-2.116-1.982-2.599a2.547 2.547 0 0 0-.398-.144c-.566-.91-1.446-1.74-2.441-2.195-1.501-.687-2.76-.293-3.057.872-1.062-.091-1.77.532-1.77 1.597 0 1.436 1.27 3.181 2.84 3.899l5.961 2.73c1.41.645 2.555.121 2.555-1.17 0-1.004-.695-2.2-1.708-2.99zm-.847 3.38l-5.962-2.73c-1.098-.502-1.987-1.723-1.987-2.729 0-.916.74-1.336 1.704-1.022v-.018c0-1.148 1.016-1.613 2.27-1.04.95.435 1.763 1.34 2.102 2.252.198-.065.456-.041.738.088.626.287 1.135.986 1.135 1.56a.657.657 0 0 1-.156.454c.052.019.105.042.156.065.94.43 1.704 1.479 1.704 2.34 0 .86-.763 1.21-1.704.78z" fill="#4286c5"></path></svg></g></g><g opacity="1"><g id="c6cd6d91-bf51-425f-83fe-4d7c62ffe88c" transform="translate(0 0)"><svg x="-761" y="604" height="93.28" width="81" viewBox="0 0 21.431 24.68"><path d="M.268 5.102l12.537 7.238 5.224-.603 3.134-9.048L16.984.276 1.313 2.086z" fill="#ececed" fill-rule="evenodd"></path><path d="M.268 5.102v12.064l12.537 7.238V12.34z" fill="#d2d2d4" fill-rule="evenodd"></path><path d="M12.805 12.34l5.224-.603v12.064l-5.224.603z" fill="#d2d2d4" fill-rule="evenodd"></path><path d="M18.029 11.737l3.134-9.048v12.064l-3.134 9.048z" fill="#b8b8bb" fill-rule="evenodd"></path><path d="M.268 5.102l12.537 7.238 5.224-.603 3.134-9.048M18.029 11.737v12.064M12.805 12.34v12.064" fill="none" stroke="#83838a" stroke-width=".265"></path><path d="M.268 17.166l12.537 7.238 5.224-.603 3.134-9.048V2.689L16.984.276 1.313 2.086.268 5.102z" fill="none" stroke="#000000" stroke-width=".529"></path><path d="M16.852 3.319c-.637-.01-1.269-.156-1.755-.437-.486-.28-.738-.645-.756-1.013l-3.498.035c.11.43-.121.884-.694 1.215-.364.21-.812.34-1.282.391-.625.068-1.225.242-1.709.521-1.273.735-1.277 1.926-.013 2.664.733.423 1.145.956 1.247 1.509.957.059 1.88.296 2.613.72 1.279.73 3.34.727 4.614-.008.483-.28.784-.626.902-.987.089-.271.315-.53.678-.74.573-.33 1.36-.464 2.104-.4l.061-2.02c-.637-.01-1.269-.156-1.755-.437-.486-.28-.739-.645-.757-1.013z" fill="none"></path><path d="M17.277 4.302c.467.27 1.056.427 1.664.471l-.05 1.693c-.73-.014-1.466.14-2.023.462-.404.234-.655.522-.754.824-.107.33-.381.647-.823.902-1.16.671-3.041.674-4.207.007-.722-.418-1.619-.665-2.555-.75-.144-.54-.573-1.06-1.296-1.477C6.081 5.759 6.086 4.672 7.247 4c.441-.256.989-.414 1.559-.476.522-.057 1.02-.203 1.424-.436.557-.322.823-.749.8-1.17l2.926-.03c.076.352.348.693.815.963.473.274 1.071.432 1.688.473.072.357.345.703.818.976z" fill="#4286c5" fill-rule="evenodd"></path><g fill="#ffffff" font-family="Interstate" font-size="5.176" stroke-width=".268" style="line-height: 0%;"><path d="M11.246 3.567l1.863 1.078-.399.231-1.429-.826-.86.497q.139.04.259.09.122.049.225.108.588.34.609.725.021.385-.529.703-.566.327-1.233.305-.665-.023-1.307-.394-.22-.127-.414-.282-.19-.154-.36-.339l.478-.276q.096.19.265.352.17.163.421.309.407.235.858.249.45.013.818-.199.366-.212.343-.473-.024-.26-.43-.496-.19-.11-.423-.196-.23-.084-.517-.147zM14.127 7.104q.268.239.228.482-.038.245-.376.44-.52.3-1.16.259-.642-.042-1.3-.423-.221-.128-.412-.29-.19-.158-.352-.353l.458-.265q.082.18.259.35.176.17.432.319.446.258.855.29.412.035.748-.16.31-.179.265-.406-.04-.227-.428-.451l-.408-.237.39-.225.427.247q.35.202.675.23.326.026.59-.127.27-.156.22-.35-.044-.195-.401-.401-.195-.113-.461-.218-.266-.104-.623-.208l.423-.244q.346.112.618.227.275.115.484.236.54.313.609.638.07.323-.348.565-.291.168-.66.189-.367.019-.752-.114z" style="line-height: 1.25;"></path></g></svg></g></g><g opacity="1"><g id="2685515d-0fdf-4c31-b26d-7cf5ad8c321d" transform="translate(0 0)"><svg x="-600" y="691" height="95.068" width="63" viewBox="0 0 16.669 25.153"><path d="M16.668 22.903q0 1.64-.864 2.091-.865.451-2.297-.376L3.161 18.645q-1.433-.827-2.297-2.276Q.001 14.921 0 13.28q0-.723.042-1.39.042-.666.166-1.394.124-.727.313-1.302.19-.575.51-1.039.319-.464.733-.683.414-.22 1.012-.147.598.073 1.32.49.107.06.497.58.391.52.882 1.165.491.646 1.279 1.394.788.75 1.58 1.207.793.458 1.58.618.788.161 1.28.083.49-.079.881-.147.39-.069.497-.007.722.416 1.32 1.035.598.619 1.013 1.315.414.697.734 1.531t.509 1.627q.19.793.313 1.664.124.872.166 1.586.042.713.042 1.438zM12.88 8.51q0 2.173-1.332 2.942-1.332.769-3.214-.318-1.882-1.086-3.214-3.393Q3.79 5.434 3.79 3.26q0-2.173 1.331-2.942 1.332-.77 3.214.317t3.214 3.394q1.332 2.306 1.332 4.48z" fill="#000" stroke="#000000" stroke-width=".268"></path></svg></g></g></g><g pointer-events="auto"></g><g pointer-events="auto"><g opacity="1"><g id="37eba9fd-7f3d-4c95-a8db-0dbeb3452b05" transform="translate(0 0)"><svg x="-864" y="481" overflow="visible"><g transform=" "><circle cx="0" cy="0" fill="rgba(0, 0, 0, 0)" r="40"></circle><svg width="100" height="100" x="-50" y="-50" style="fill: rgb(255, 255, 255);"><svg data-name="Layer 1" xmlns="http://www.w3.org/2000/svg" width="100" height="100" viewBox="0 0 100 100"><path d="M85.23 58v3.19C85.23 67 78.85 73 71 73H29c-7.85 0-14.23-6-14.23-11.81V58z" fill="#9d5125"></path><path d="M41.89 26.9a18 18 0 0 1 16.42 10.56 9.14 9.14 0 0 1 14.29 7.18c7.1.59 12.63 7.44 12.63 12.88v1.18c0 5.85-6.38 11.78-14.26 11.78H29c-7.86 0-14.24-5.93-14.24-11.78v-1.17c0-4.51 3.79-10.71 9.12-12.25v-.51A17.94 17.94 0 0 1 41.89 26.9z" fill="#f58535"></path><path d="M31.84 47.81h2.79L37.43 61l3-13.16h2.79l-4.15 16.45h-3.35zM44.91 47.81h5.22c3.16 0 4.55 2 4.55 4.8s-1.73 4.87-4.82 4.87h-2.32v6.81h-2.63zm2.63 7.69h1.87c1.41 0 2.63-.76 2.63-2.84 0-1.78-.71-2.86-2.82-2.86h-1.68zM67 58.38v.35c0 3-1.2 5.89-5.08 5.89-4.16 0-5.45-2.68-5.45-8.56s1.29-8.56 5.47-8.56c4.68 0 5 3.46 5 5.17V53h-2.62v-.28c0-1.52-.46-3.28-2.35-3.21s-2.82 1.2-2.82 6.51.85 6.61 2.85 6.61c2.19 0 2.45-2.45 2.45-4v-.28z" fill="#fff"></path></svg></svg></g></svg></g></g><g opacity="1"><g id="3ab7744a-d8ed-4de8-9d9f-d908b42cde76" transform="translate(0 0)"><svg x="-96" y="111" overflow="visible"><g transform=" "><circle cx="0" cy="0" fill="rgba(0, 0, 0, 0)" r="40"></circle><svg width="100" height="100" x="-50" y="-50" style="fill: rgb(255, 255, 255);"><svg data-name="Layer 1" xmlns="http://www.w3.org/2000/svg" width="100" height="100" viewBox="0 0 100 100"><g><path fill="#9d5025" d="M59.03 69.58V59.11l-4.46-4.45-2.94-2.95 2.94-2.94 4.46-4.46V33.59h5.23v-3.42L50 20.38l-14.26 9.79v3.42h5.23v10.72l4.46 4.46 2.94 2.94-2.94 2.95-4.46 4.45v10.47l-5.23-3.17v3.42L50 84.09l14.26-14.26v-3.42l-5.23 3.17z"></path><path fill="#9d5025" d="M41.71 51.71v-3.42l-14.26-4.02h-13v14.88h13v6.82l14.26-14.26zM85.55 44.27H72.56l-14.27 4.02v3.42l14.27 14.26v-6.82h12.99V44.27z"></path><path fill="#f58536" d="M59.03 66.16V55.69l-4.46-4.46-2.94-2.94 2.94-2.95 4.46-4.45V30.17h5.23L50 15.91 35.74 30.17h5.23v10.72l4.46 4.45 2.94 2.95-2.94 2.94-4.46 4.46v10.72h-5.23L50 80.67l14.26-14.26h-5.23v-.25z"></path><path fill="#f58536" d="M41.71 48.29L27.45 34.02v6.83h-13v14.88h13v6.82l14.26-14.26zM85.55 40.85H72.56v-6.83L58.29 48.29l14.27 14.26v-6.82h12.99V40.85z"></path></g></svg></svg></g></svg></g></g><g opacity="1"><g id="cc4722f8-8467-47de-8877-16b227228518" transform="translate(0 0)"><svg x="352" y="296" overflow="visible"><g transform=" "><circle cx="0" cy="0" fill="rgba(0, 0, 0, 0)" r="40"></circle><svg width="100" height="100" x="-50" y="-50" style="fill: rgb(255, 255, 255);"><svg data-name="Layer 1" xmlns="http://www.w3.org/2000/svg" width="100" height="100" viewBox="0 0 100 100"><g><path fill="#9d5025" d="M59.03 69.58V59.11l-4.46-4.45-2.94-2.95 2.94-2.94 4.46-4.46V33.59h5.23v-3.42L50 20.38l-14.26 9.79v3.42h5.23v10.72l4.46 4.46 2.94 2.94-2.94 2.95-4.46 4.45v10.47l-5.23-3.17v3.42L50 84.09l14.26-14.26v-3.42l-5.23 3.17z"></path><path fill="#9d5025" d="M41.71 51.71v-3.42l-14.26-4.02h-13v14.88h13v6.82l14.26-14.26zM85.55 44.27H72.56l-14.27 4.02v3.42l14.27 14.26v-6.82h12.99V44.27z"></path><path fill="#f58536" d="M59.03 66.16V55.69l-4.46-4.46-2.94-2.94 2.94-2.95 4.46-4.45V30.17h5.23L50 15.91 35.74 30.17h5.23v10.72l4.46 4.45 2.94 2.95-2.94 2.94-4.46 4.46v10.72h-5.23L50 80.67l14.26-14.26h-5.23v-.25z"></path><path fill="#f58536" d="M41.71 48.29L27.45 34.02v6.83h-13v14.88h13v6.82l14.26-14.26zM85.55 40.85H72.56v-6.83L58.29 48.29l14.27 14.26v-6.82h12.99V40.85z"></path></g></svg></svg></g></svg></g></g><g opacity="1"><g id="a9760c5f-be43-4a07-b72a-2dc1b95960a8" transform="translate(0 0)"><svg x="-192" y="999" overflow="visible"><g transform=" "><circle cx="0" cy="0" fill="rgba(0, 0, 0, 0)" r="40"></circle><svg width="100" height="100" x="-50" y="-50" style="fill: rgb(255, 255, 255);"><svg data-name="Layer 1" xmlns="http://www.w3.org/2000/svg" width="100" height="100" viewBox="0 0 100 100"><path d="M85.23 58v3.19C85.23 67 78.85 73 71 73H29c-7.85 0-14.23-6-14.23-11.81V58z" fill="#9d5125"></path><path d="M41.89 26.9a18 18 0 0 1 16.42 10.56 9.14 9.14 0 0 1 14.29 7.18c7.1.59 12.63 7.44 12.63 12.88v1.18c0 5.85-6.38 11.78-14.26 11.78H29c-7.86 0-14.24-5.93-14.24-11.78v-1.17c0-4.51 3.79-10.71 9.12-12.25v-.51A17.94 17.94 0 0 1 41.89 26.9z" fill="#f58535"></path><path d="M32.42 47.81l-4.71 16.45h2.76l1.06-4h4.85l1 4h2.76l-4.33-16.45zM32 58.13L34 50l1.9 8.11zM51.99 60.66h-.04l-2.23-12.85h-2.78l-2.18 12.78h-.05l-2.17-12.78h-2.67l3.19 16.45h3.07l2.11-12.39h.05l2.13 12.39h3.06l3.29-16.45h-2.62l-2.16 12.85zM65.28 55.28l-1.79-.65C61.74 54 61 53.25 61 51.84a2.11 2.11 0 0 1 2.22-2.37 2.07 2.07 0 0 1 2.32 2.38v.35h2.65v-.37c0-1.7-.44-4.33-4.68-4.33-3.11 0-5.15 1.66-5.15 4.66 0 2.35 1 3.59 3.45 4.51l1.81.63A2.76 2.76 0 0 1 66 60.2a2.34 2.34 0 0 1-2.51 2.4c-1.83 0-2.71-1-2.71-3v-.42h-2.64v.39c0 2.3.93 5 5 5 3.34 0 5.48-1.45 5.48-4.95.03-2.25-1-3.52-3.34-4.34z" fill="#fff"></path></svg></svg></g></svg></g></g><g opacity="1"><g id="41ea4109-17d3-4b48-9198-da4b725d7fdf" transform="translate(0 0)"><svg x="-160" y="74" overflow="visible"><g transform=" "><circle cx="0" cy="0" fill="rgba(0, 0, 0, 0)" r="40"></circle><svg width="100" height="100" x="-50" y="-50" style="fill: rgb(255, 255, 255);"><svg data-name="Layer 1" xmlns="http://www.w3.org/2000/svg" width="100" height="100" viewBox="0 0 100 100"><g><path fill="#4b612c" d="M27.72 42.83h10.71v26.44H27.72zM44.65 47.98h10.71v21.29H44.65zM74.22 73.46v5.66H25.77v-5.66zM61.57 39.65v29.62h10.71V39.65a11.2 11.2 0 0 1-10.71 0z"></path><path fill="#759c3e" d="M27.72 40.35h10.71v26.44H27.72zM44.65 45.5h10.71v21.29H44.65zM74.22 70.98v5.66H25.77v-5.66zM61.57 37.17v29.62h10.71V37.17a11.2 11.2 0 0 1-10.71 0z"></path><path d="M73.38 29.82a6.46 6.46 0 0 1-12.93 0v-2.48l6.46-4 6.46 4z" fill="#8d090a"></path><circle cx="66.92" cy="27.34" r="6.46" fill="#ea2227"></circle></g></svg></svg></g></svg></g></g><g opacity="1"><g id="36d6de98-c7fe-48db-8c9a-952d60f8d640" transform="translate(0 0)"><svg x="304" y="250" overflow="visible"><g transform=" "><circle cx="0" cy="0" fill="rgba(0, 0, 0, 0)" r="40"></circle><svg width="100" height="100" x="-50" y="-50" style="fill: rgb(255, 255, 255);"><svg data-name="Layer 1" xmlns="http://www.w3.org/2000/svg" width="100" height="100" viewBox="0 0 100 100"><g><path fill="#4b612c" d="M27.72 42.83h10.71v26.44H27.72zM44.65 47.98h10.71v21.29H44.65zM74.22 73.46v5.66H25.77v-5.66zM61.57 39.65v29.62h10.71V39.65a11.2 11.2 0 0 1-10.71 0z"></path><path fill="#759c3e" d="M27.72 40.35h10.71v26.44H27.72zM44.65 45.5h10.71v21.29H44.65zM74.22 70.98v5.66H25.77v-5.66zM61.57 37.17v29.62h10.71V37.17a11.2 11.2 0 0 1-10.71 0z"></path><path d="M73.38 29.82a6.46 6.46 0 0 1-12.93 0v-2.48l6.46-4 6.46 4z" fill="#8d090a"></path><circle cx="66.92" cy="27.34" r="6.46" fill="#ea2227"></circle></g></svg></svg></g></svg></g></g></g><g pointer-events="auto"><g opacity="1"><g id="2a145ca8-672b-4bf6-ab42-b1af365bea74"><svg x="-496" y="490" overflow="visible"><text stroke="#ffffff" stroke-width="0" font-family="Open Sans" y="23.96" font-size="14pt" fill="#4286c5" font-weight="bold" transform="matrix(0.707, 0.409, 0, 0.816, 0, 0)" xml:space="preserve"><tspan x="8" dy="0">NAT</tspan></text><text font-family="Open Sans" y="23.96" font-size="14pt" fill="#4286c5" font-weight="bold" transform="matrix(0.707, 0.409, 0, 0.816, 0, 0)" xml:space="preserve"><tspan x="8" dy="0">NAT</tspan></text></svg></g></g><g opacity="1"><g id="4eddf7c1-d8d6-4834-a362-9a12cb7fc874"><svg x="256" y="333" overflow="visible"><text stroke="#ffffff" stroke-width="0" font-family="Open Sans" y="28.52" font-size="18pt" fill="#4286c5" font-weight="bold" transform="matrix(0.707, 0.409, 0, 0.816, 0, 0)" xml:space="preserve"><tspan x="8" dy="0">ECS</tspan></text><text font-family="Open Sans" y="28.52" font-size="18pt" fill="#4286c5" font-weight="bold" transform="matrix(0.707, 0.409, 0, 0.816, 0, 0)" xml:space="preserve"><tspan x="8" dy="0">ECS</tspan></text></svg></g></g><g opacity="1"><g id="876233a6-93ae-45f6-ab09-d997d5f31b5b"><svg x="-512" y="648" overflow="visible"><text stroke="#ffffff" stroke-width="0" font-family="Open Sans" y="23.96" font-size="14pt" fill="#4286c5" font-weight="bold" transform="matrix(0.707, 0.409, 0, 0.816, 0, 0)" xml:space="preserve"><tspan x="8" dy="0">IGW</tspan></text><text font-family="Open Sans" y="23.96" font-size="14pt" fill="#4286c5" font-weight="bold" transform="matrix(0.707, 0.409, 0, 0.816, 0, 0)" xml:space="preserve"><tspan x="8" dy="0">IGW</tspan></text></svg></g></g><g opacity="1"><g id="47ef69b7-b6f6-4079-832d-b5da32735988"><svg x="256" y="481" overflow="visible"><text stroke="#ffffff" stroke-width="0" font-family="Open Sans" y="23.96" font-size="14pt" fill="#4286c5" font-weight="bold" transform="matrix(0.707, -0.409, 0, 0.816, 0, 0)" xml:space="preserve"><tspan x="8" dy="0">MASTER</tspan></text><text font-family="Open Sans" y="23.96" font-size="14pt" fill="#4286c5" font-weight="bold" transform="matrix(0.707, -0.409, 0, 0.816, 0, 0)" xml:space="preserve"><tspan x="8" dy="0">MASTER</tspan></text></svg></g></g><g opacity="1"><g id="c89ceb33-7ca8-4e72-9f5d-6365c6809f9d"><svg x="320" y="555" overflow="visible"><text stroke="#ffffff" stroke-width="0" font-family="Open Sans" y="36.5" font-size="25pt" fill="#4286c5" font-weight="bold" transform="matrix(0.707 -0.409 0.707 0.409 0 0)" xml:space="preserve"><tspan x="8" dy="0">EFS</tspan></text><text font-family="Open Sans" y="36.5" font-size="25pt" fill="#4286c5" font-weight="bold" transform="matrix(0.707 -0.409 0.707 0.409 0 0)" xml:space="preserve"><tspan x="8" dy="0">EFS</tspan></text></svg></g></g><g opacity="1"><g id="c0072c42-7d5d-4583-aff7-95545a7a186c" transform="translate(0 0)"><svg x="192" y="444" overflow="visible"><text stroke="#ffffff" stroke-width="0" font-family="Open Sans" y="23.96" font-size="14pt" fill="#4286c5" font-weight="bold" transform="matrix(0.707, 0.409, 0, 0.816, 0, 0)" xml:space="preserve"><tspan x="8" dy="0">JENKINS</tspan></text><text font-family="Open Sans" y="23.96" font-size="14pt" fill="#4286c5" font-weight="bold" transform="matrix(0.707, 0.409, 0, 0.816, 0, 0)" xml:space="preserve"><tspan x="8" dy="0">JENKINS</tspan></text></svg></g></g><g opacity="1"><g id="e0fecc7c-d0ea-416a-8d39-7a4cdbbca163" transform="translate(0 0)"><svg x="32" y="463" overflow="visible"><text stroke="#ffffff" stroke-width="0" font-family="Open Sans" y="34.22" font-size="23pt" fill="#4286c5" font-weight="bold" transform="matrix(0.707 -0.409 0.707 0.409 0 0)" xml:space="preserve"><tspan x="8" dy="0">us-west-2a</tspan></text><text font-family="Open Sans" y="34.22" font-size="23pt" fill="#4286c5" font-weight="bold" transform="matrix(0.707 -0.409 0.707 0.409 0 0)" xml:space="preserve"><tspan x="8" dy="0">us-west-2a</tspan></text></svg></g></g><g opacity="1"><g id="c613b3fd-b79e-46b8-b71c-65b0d60db44b" transform="translate(0 0)"><svg x="-352" y="241" overflow="visible"><text stroke="#ffffff" stroke-width="0" font-family="Open Sans" y="34.22" font-size="23pt" fill="#4286c5" font-weight="bold" transform="matrix(0.707 -0.409 0.707 0.409 0 0)" xml:space="preserve"><tspan x="8" dy="0">us-west-2b</tspan></text><text font-family="Open Sans" y="34.22" font-size="23pt" fill="#4286c5" font-weight="bold" transform="matrix(0.707 -0.409 0.707 0.409 0 0)" xml:space="preserve"><tspan x="8" dy="0">us-west-2b</tspan></text></svg></g></g><g opacity="1"><g id="0b0f505d-5fe4-4010-950e-f9c598e7a54a" transform="translate(0 0)"><svg x="-640" y="444" overflow="visible"><text stroke="#ffffff" stroke-width="0" font-family="Open Sans" y="26.24" font-size="16pt" fill="#4286c5" font-weight="bold" transform="matrix(0.707 0.409 -0.707 0.409 0 0)" xml:space="preserve"><tspan x="8" dy="0">PUBLIC</tspan></text><text font-family="Open Sans" y="26.24" font-size="16pt" fill="#4286c5" font-weight="bold" transform="matrix(0.707 0.409 -0.707 0.409 0 0)" xml:space="preserve"><tspan x="8" dy="0">PUBLIC</tspan></text></svg></g></g><g opacity="1"><g id="28965750-681d-4c2b-8ee1-e5e071185f6d" transform="translate(0 0)"><svg x="-256" y="666" overflow="visible"><text stroke="#ffffff" stroke-width="0" font-family="Open Sans" y="26.24" font-size="16pt" fill="#4286c5" font-weight="bold" transform="matrix(0.707 0.409 -0.707 0.409 0 0)" xml:space="preserve"><tspan x="8" dy="0">PUBLIC</tspan></text><text font-family="Open Sans" y="26.24" font-size="16pt" fill="#4286c5" font-weight="bold" transform="matrix(0.707 0.409 -0.707 0.409 0 0)" xml:space="preserve"><tspan x="8" dy="0">PUBLIC</tspan></text></svg></g></g><g opacity="1"><g id="c25e545e-5f8e-4d98-95a9-61c6fb670216" transform="translate(0 0)"><svg x="-288" y="648" overflow="visible"><text stroke="#ffffff" stroke-width="0" font-family="Open Sans" y="34.22" font-size="23pt" fill="#4286c5" font-weight="bold" transform="matrix(0.707 -0.409 0.707 0.409 0 0)" xml:space="preserve"><tspan x="8" dy="0">us-west-2a</tspan></text><text font-family="Open Sans" y="34.22" font-size="23pt" fill="#4286c5" font-weight="bold" transform="matrix(0.707 -0.409 0.707 0.409 0 0)" xml:space="preserve"><tspan x="8" dy="0">us-west-2a</tspan></text></svg></g></g><g opacity="1"><g id="a30845f1-7b6a-4ac2-8d51-69bd02df90e6" transform="translate(0 0)"><svg x="-672" y="426" overflow="visible"><text stroke="#ffffff" stroke-width="0" font-family="Open Sans" y="34.22" font-size="23pt" fill="#4286c5" font-weight="bold" transform="matrix(0.707 -0.409 0.707 0.409 0 0)" xml:space="preserve"><tspan x="8" dy="0">us-west-2b</tspan></text><text font-family="Open Sans" y="34.22" font-size="23pt" fill="#4286c5" font-weight="bold" transform="matrix(0.707 -0.409 0.707 0.409 0 0)" xml:space="preserve"><tspan x="8" dy="0">us-west-2b</tspan></text></svg></g></g><g opacity="1"><g id="d026eefe-665f-439b-9749-d79d3791c594" transform="translate(0 0)"><svg x="-320" y="259" overflow="visible"><text stroke="#ffffff" stroke-width="0" font-family="Open Sans" y="23.96" font-size="14pt" fill="#4286c5" font-weight="bold" transform="matrix(0.707 0.409 -0.707 0.409 0 0)" xml:space="preserve"><tspan x="8" dy="0">PRIVATE</tspan></text><text font-family="Open Sans" y="23.96" font-size="14pt" fill="#4286c5" font-weight="bold" transform="matrix(0.707 0.409 -0.707 0.409 0 0)" xml:space="preserve"><tspan x="8" dy="0">PRIVATE</tspan></text></svg></g></g><g opacity="1"><g id="3f24f115-6a06-43f2-a87f-21900c5ba16a" transform="translate(0 0)"><svg x="64" y="481" overflow="visible"><text stroke="#ffffff" stroke-width="0" font-family="Open Sans" y="23.96" font-size="14pt" fill="#4286c5" font-weight="bold" transform="matrix(0.707 0.409 -0.707 0.409 0 0)" xml:space="preserve"><tspan x="8" dy="0">PRIVATE</tspan></text><text font-family="Open Sans" y="23.96" font-size="14pt" fill="#4286c5" font-weight="bold" transform="matrix(0.707 0.409 -0.707 0.409 0 0)" xml:space="preserve"><tspan x="8" dy="0">PRIVATE</tspan></text></svg></g></g><g opacity="1"><g id="5ca75059-74a4-4be4-8830-537c9554012d" transform="translate(0 0)"><svg x="-848" y="453" overflow="visible"><text stroke="#ffffff" stroke-width="0" font-family="Open Sans" y="36.5" font-size="25pt" fill="#4286c5" font-weight="bold" transform="matrix(0.707 -0.409 0.707 0.409 0 0)" xml:space="preserve"><tspan x="8" dy="0">contentnow-tools-vpc - 10.0.0.0/16</tspan></text><text font-family="Open Sans" y="36.5" font-size="25pt" fill="#4286c5" font-weight="bold" transform="matrix(0.707 -0.409 0.707 0.409 0 0)" xml:space="preserve"><tspan x="8" dy="0">contentnow-tools-vpc - 10.0.0.0/16</tspan></text></svg></g></g><g opacity="1"><g id="4414f301-adb2-4352-b1eb-d3bb3a309a79" transform="translate(0 0)"><svg x="576" y="481" overflow="visible"><text stroke="#ffffff" stroke-width="4" font-family="Open Sans" y="36.5" font-size="25pt" fill="#4286c5" font-weight="bold" transform="matrix(0.707 -0.409 0.707 0.409 0 0)" xml:space="preserve"><tspan x="8" dy="0">EBS</tspan></text><text font-family="Open Sans" y="36.5" font-size="25pt" fill="#4286c5" font-weight="bold" transform="matrix(0.707 -0.409 0.707 0.409 0 0)" xml:space="preserve"><tspan x="8" dy="0">EBS</tspan></text></svg></g></g><g opacity="1"><g id="915853f9-46d6-4b95-b431-b6f59ff36dcd" transform="translate(0 0)"><svg x="192" y="555" overflow="visible"><text stroke="#ffffff" stroke-width="0" font-family="Open Sans" y="30.799999999999997" font-size="20pt" fill="#4286c5" font-weight="bold" transform="matrix(0.707 0.409 -0.707 0.409 0 0)" xml:space="preserve"><tspan x="8" dy="0">10.0.32.0/20</tspan></text><text font-family="Open Sans" y="30.799999999999997" font-size="20pt" fill="#4286c5" font-weight="bold" transform="matrix(0.707 0.409 -0.707 0.409 0 0)" xml:space="preserve"><tspan x="8" dy="0">10.0.32.0/20</tspan></text></svg></g></g><g opacity="1"><g id="1db8bf9c-923e-4815-b8cf-0ff22fc565c8" transform="translate(0 0)"><svg x="-192" y="333" overflow="visible"><text stroke="#ffffff" stroke-width="0" font-family="Open Sans" y="30.799999999999997" font-size="20pt" fill="#4286c5" font-weight="bold" transform="matrix(0.707 0.409 -0.707 0.409 0 0)" xml:space="preserve"><tspan x="8" dy="0">10.0.64.0/20</tspan></text><text font-family="Open Sans" y="30.799999999999997" font-size="20pt" fill="#4286c5" font-weight="bold" transform="matrix(0.707 0.409 -0.707 0.409 0 0)" xml:space="preserve"><tspan x="8" dy="0">10.0.64.0/20</tspan></text></svg></g></g><g opacity="1"><g id="c35db205-34e5-4d4a-9f98-039b0edc94fb" transform="translate(0 0)"><svg x="-384" y="592" overflow="visible"><text stroke="#ffffff" stroke-width="0" font-family="Open Sans" y="30.799999999999997" font-size="20pt" fill="#4286c5" font-weight="bold" transform="matrix(0.707 -0.409 0.707 0.409 0 0)" xml:space="preserve"><tspan x="8" dy="0">10.0.48.0/20</tspan></text><text font-family="Open Sans" y="30.799999999999997" font-size="20pt" fill="#4286c5" font-weight="bold" transform="matrix(0.707 -0.409 0.707 0.409 0 0)" xml:space="preserve"><tspan x="8" dy="0">10.0.48.0/20</tspan></text></svg></g></g><g opacity="1"><g id="fcf590e4-6e06-4804-8954-582ab74318fd" transform="translate(0 0)"><svg x="0" y="814" overflow="visible"><text stroke="#ffffff" stroke-width="0" font-family="Open Sans" y="30.799999999999997" font-size="20pt" fill="#4286c5" font-weight="bold" transform="matrix(0.707 -0.409 0.707 0.409 0 0)" xml:space="preserve"><tspan x="8" dy="0">10.0.16.0/20</tspan></text><text font-family="Open Sans" y="30.799999999999997" font-size="20pt" fill="#4286c5" font-weight="bold" transform="matrix(0.707 -0.409 0.707 0.409 0 0)" xml:space="preserve"><tspan x="8" dy="0">10.0.16.0/20</tspan></text></svg></g></g><g opacity="1"><g id="125af42b-a23b-4576-8bbe-611118b6fe6e" transform="translate(0 0)"><svg x="-64" y="666" overflow="visible"><text stroke="#ffffff" stroke-width="0" font-family="Open Sans" y="22.82" font-size="13pt" fill="#4286c5" font-weight="bold" transform="matrix(0.707, -0.409, 0, 0.816, 0, 0)" xml:space="preserve"><tspan x="8" dy="0">BASTION</tspan></text><text font-family="Open Sans" y="22.82" font-size="13pt" fill="#4286c5" font-weight="bold" transform="matrix(0.707, -0.409, 0, 0.816, 0, 0)" xml:space="preserve"><tspan x="8" dy="0">BASTION</tspan></text></svg></g></g><g opacity="1"><g id="1363b65f-ea89-4d34-92c9-13e6a7f1f99f" transform="translate(0 0)"><svg x="-128" y="629" overflow="visible"><text stroke="#ffffff" stroke-width="0" font-family="Open Sans" y="22.82" font-size="13pt" fill="#4286c5" font-weight="bold" transform="matrix(0.707, 0.409, 0, 0.816, 0, 0)" xml:space="preserve"><tspan x="8" dy="0">BASTION</tspan></text><text font-family="Open Sans" y="22.82" font-size="13pt" fill="#4286c5" font-weight="bold" transform="matrix(0.707, 0.409, 0, 0.816, 0, 0)" xml:space="preserve"><tspan x="8" dy="0">BASTION</tspan></text></svg></g></g><g opacity="1"><g id="58087c95-8412-4850-a38f-5de7b90dab88" transform="translate(0 0)"><svg x="-256" y="740" overflow="visible"><text stroke="#ffffff" stroke-width="0" font-family="Open Sans" y="36.5" font-size="25pt" fill="#4286c5" font-weight="bold" transform="matrix(0.707 0.409 -0.707 0.409 0 0)" xml:space="preserve"><tspan x="8" dy="0">SSH</tspan></text><text font-family="Open Sans" y="36.5" font-size="25pt" fill="#4286c5" font-weight="bold" transform="matrix(0.707 0.409 -0.707 0.409 0 0)" xml:space="preserve"><tspan x="8" dy="0">SSH</tspan></text></svg></g></g><g opacity="1"><g id="0f92d174-e9ee-4cab-a947-3bfb73bee677" transform="translate(0 0)"><svg x="-144" y="472" overflow="visible"><text stroke="#ffffff" stroke-width="0" font-family="Open Sans" y="23.96" font-size="14pt" fill="#4286c5" font-weight="bold" transform="matrix(0.707, 0.409, 0, 0.816, 0, 0)" xml:space="preserve"><tspan x="8" dy="0">EBS</tspan></text><text font-family="Open Sans" y="23.96" font-size="14pt" fill="#4286c5" font-weight="bold" transform="matrix(0.707, 0.409, 0, 0.816, 0, 0)" xml:space="preserve"><tspan x="8" dy="0">EBS</tspan></text></svg></g></g><g opacity="1"><g id="e3da9a78-aa1d-453d-86b7-1a3b12a85f15" transform="translate(0 0)"><svg x="-80" y="490" overflow="visible"><text stroke="#ffffff" stroke-width="0" font-family="Open Sans" y="23.96" font-size="14pt" fill="#4286c5" font-weight="bold" transform="matrix(0.707, -0.409, 0, 0.816, 0, 0)" xml:space="preserve"><tspan x="8" dy="0">EBS</tspan></text><text font-family="Open Sans" y="23.96" font-size="14pt" fill="#4286c5" font-weight="bold" transform="matrix(0.707, -0.409, 0, 0.816, 0, 0)" xml:space="preserve"><tspan x="8" dy="0">EBS</tspan></text></svg></g></g><g opacity="1"><g id="c678dbeb-c60a-4aaa-a2a5-38bdd6cefd48" transform="translate(0 0)"><svg x="128" y="296" overflow="visible"><text stroke="#ffffff" stroke-width="4" font-family="Open Sans" y="36.5" font-size="25pt" fill="#4286c5" font-weight="bold" transform="matrix(0.707 -0.409 0.707 0.409 0 0)" xml:space="preserve"><tspan x="8" dy="0">EBS</tspan></text><text font-family="Open Sans" y="36.5" font-size="25pt" fill="#4286c5" font-weight="bold" transform="matrix(0.707 -0.409 0.707 0.409 0 0)" xml:space="preserve"><tspan x="8" dy="0">EBS</tspan></text></svg></g></g><g opacity="1"><g id="bca61170-5a6e-4714-a6d5-5eb52802bdd8" transform="translate(0 0)"><svg x="320" y="370" overflow="visible"><text stroke="#ffffff" stroke-width="0" font-family="Open Sans" y="28.52" font-size="18pt" fill="#4286c5" font-weight="bold" transform="matrix(0.707, 0.409, 0, 0.816, 0, 0)" xml:space="preserve"><tspan x="8" dy="0">JNLP</tspan></text><text font-family="Open Sans" y="28.52" font-size="18pt" fill="#4286c5" font-weight="bold" transform="matrix(0.707, 0.409, 0, 0.816, 0, 0)" xml:space="preserve"><tspan x="8" dy="0">JNLP</tspan></text></svg></g></g><g opacity="1"><g id="d702e2de-ee2d-4fe8-8b41-de2a599bd4f4" transform="translate(0 0)"><svg x="384" y="407" overflow="visible"><text stroke="#ffffff" stroke-width="0" font-family="Open Sans" y="28.52" font-size="18pt" fill="#4286c5" font-weight="bold" transform="matrix(0.707, 0.409, 0, 0.816, 0, 0)" xml:space="preserve"><tspan x="8" dy="0">SLAVE</tspan></text><text font-family="Open Sans" y="28.52" font-size="18pt" fill="#4286c5" font-weight="bold" transform="matrix(0.707, 0.409, 0, 0.816, 0, 0)" xml:space="preserve"><tspan x="8" dy="0">SLAVE</tspan></text></svg></g></g><g opacity="1"><g id="6234b025-9f5f-48a6-9810-e50b2548f73c" transform="translate(0 0)"><svg x="448" y="444" overflow="visible"><text stroke="#ffffff" stroke-width="0" font-family="Open Sans" y="28.52" font-size="18pt" fill="#4286c5" font-weight="bold" transform="matrix(0.707, 0.409, 0, 0.816, 0, 0)" xml:space="preserve"><tspan x="8" dy="0">TASKS</tspan></text><text font-family="Open Sans" y="28.52" font-size="18pt" fill="#4286c5" font-weight="bold" transform="matrix(0.707, 0.409, 0, 0.816, 0, 0)" xml:space="preserve"><tspan x="8" dy="0">TASKS</tspan></text></svg></g></g><g opacity="1"><g id="c314f3a6-867d-487f-916a-cfe598dc019d" transform="translate(0 0)"><svg x="0" y="259" overflow="visible"><text stroke="#ffffff" stroke-width="0" font-family="Open Sans" y="28.52" font-size="18pt" fill="#4286c5" font-weight="bold" transform="matrix(0.707, 0.409, 0, 0.816, 0, 0)" xml:space="preserve"><tspan x="8" dy="0">TASKS</tspan></text><text font-family="Open Sans" y="28.52" font-size="18pt" fill="#4286c5" font-weight="bold" transform="matrix(0.707, 0.409, 0, 0.816, 0, 0)" xml:space="preserve"><tspan x="8" dy="0">TASKS</tspan></text></svg></g></g><g opacity="1"><g id="1706c50c-8e21-4037-80b3-ab8a7f611fe4" transform="translate(0 0)"><svg x="-128" y="259" overflow="visible"><text stroke="#ffffff" stroke-width="0" font-family="Open Sans" y="28.52" font-size="18pt" fill="#4286c5" font-weight="bold" transform="matrix(0.707, 0.409, 0, 0.816, 0, 0)" xml:space="preserve"><tspan x="8" dy="0">JNLP</tspan></text><text font-family="Open Sans" y="28.52" font-size="18pt" fill="#4286c5" font-weight="bold" transform="matrix(0.707, 0.409, 0, 0.816, 0, 0)" xml:space="preserve"><tspan x="8" dy="0">JNLP</tspan></text></svg></g></g><g opacity="1"><g id="43d1b7e8-f1c9-48ed-8d49-555e7b7606c3" transform="translate(0 0)"><svg x="-192" y="222" overflow="visible"><text stroke="#ffffff" stroke-width="0" font-family="Open Sans" y="28.52" font-size="18pt" fill="#4286c5" font-weight="bold" transform="matrix(0.707, 0.409, 0, 0.816, 0, 0)" xml:space="preserve"><tspan x="8" dy="0">ECS</tspan></text><text font-family="Open Sans" y="28.52" font-size="18pt" fill="#4286c5" font-weight="bold" transform="matrix(0.707, 0.409, 0, 0.816, 0, 0)" xml:space="preserve"><tspan x="8" dy="0">ECS</tspan></text></svg></g></g><g opacity="1"><g id="0dfd9b6f-67b6-4d47-88b3-369db8d0e2eb" transform="translate(0 0)"><svg x="-64" y="296" overflow="visible"><text stroke="#ffffff" stroke-width="0" font-family="Open Sans" y="28.52" font-size="18pt" fill="#4286c5" font-weight="bold" transform="matrix(0.707, -0.409, 0, 0.816, 0, 0)" xml:space="preserve"><tspan x="8" dy="0">SLAVE</tspan></text><text font-family="Open Sans" y="28.52" font-size="18pt" fill="#4286c5" font-weight="bold" transform="matrix(0.707, -0.409, 0, 0.816, 0, 0)" xml:space="preserve"><tspan x="8" dy="0">SLAVE</tspan></text></svg></g></g><g opacity="1"><g id="d85d493d-577b-41e2-a816-353763d348b1" transform="translate(0 0)"><svg x="-80" y="83" overflow="visible"><text stroke="#ffffff" stroke-width="0" font-family="Open Sans" y="30.799999999999997" font-size="20pt" fill="#4286c5" font-weight="bold" transform="matrix(0.707 -0.409 0.707 0.409 0 0)" xml:space="preserve"><tspan x="8" dy="0">ASG</tspan></text><text font-family="Open Sans" y="30.799999999999997" font-size="20pt" fill="#4286c5" font-weight="bold" transform="matrix(0.707 -0.409 0.707 0.409 0 0)" xml:space="preserve"><tspan x="8" dy="0">ASG</tspan></text></svg></g></g><g opacity="1"><g id="36c66033-ed3e-44f0-ae0a-82a43d554657" transform="translate(0 0)"><svg x="-288" y="167" overflow="visible"><text stroke="#ffffff" stroke-width="0" font-family="Open Sans" y="26.24" font-size="16pt" fill="#4286c5" font-weight="bold" transform="matrix(0.707 -0.409 0.707 0.409 0 0)" xml:space="preserve"><tspan x="8" dy="0">CLOUDWATCH</tspan></text><text font-family="Open Sans" y="26.24" font-size="16pt" fill="#4286c5" font-weight="bold" transform="matrix(0.707 -0.409 0.707 0.409 0 0)" xml:space="preserve"><tspan x="8" dy="0">CLOUDWATCH</tspan></text></svg></g></g><g opacity="1"><g id="a20af1bc-1907-48bc-a105-6c0a9b092fc3" transform="translate(0 0)"><svg x="416" y="278" overflow="visible"><text stroke="#ffffff" stroke-width="0" font-family="Open Sans" y="30.799999999999997" font-size="20pt" fill="#4286c5" font-weight="bold" transform="matrix(0.707 0.409 -0.707 0.409 0 0)" xml:space="preserve"><tspan x="8" dy="0">ASG</tspan></text><text font-family="Open Sans" y="30.799999999999997" font-size="20pt" fill="#4286c5" font-weight="bold" transform="matrix(0.707 0.409 -0.707 0.409 0 0)" xml:space="preserve"><tspan x="8" dy="0">ASG</tspan></text></svg></g></g><g opacity="1"><g id="f95b19ee-7f1d-41b4-ab9a-9f54cfc175f5" transform="translate(0 0)"><svg x="176" y="342" overflow="visible"><text stroke="#ffffff" stroke-width="0" font-family="Open Sans" y="26.24" font-size="16pt" fill="#4286c5" font-weight="bold" transform="matrix(0.707 -0.409 0.707 0.409 0 0)" xml:space="preserve"><tspan x="8" dy="0">CLOUDWATCH</tspan></text><text font-family="Open Sans" y="26.24" font-size="16pt" fill="#4286c5" font-weight="bold" transform="matrix(0.707 -0.409 0.707 0.409 0 0)" xml:space="preserve"><tspan x="8" dy="0">CLOUDWATCH</tspan></text></svg></g></g><g opacity="1"><g id="d227f341-de66-42a3-a0fb-b8d12d135cce" transform="translate(0 0)"><svg x="-64" y="925" overflow="visible"><text stroke="#ffffff" stroke-width="0" font-family="Open Sans" y="30.799999999999997" font-size="20pt" fill="#4286c5" font-weight="bold" transform="matrix(0.707 -0.409 0.707 0.409 0 0)" xml:space="preserve"><tspan x="8" dy="0">JENKINS ON ECS</tspan></text><text font-family="Open Sans" y="30.799999999999997" font-size="20pt" fill="#4286c5" font-weight="bold" transform="matrix(0.707 -0.409 0.707 0.409 0 0)" xml:space="preserve"><tspan x="8" dy="0">JENKINS ON ECS</tspan></text></svg></g></g></g><g></g></g></svg>